<mxfile host="app.diagrams.net" agent="Mozilla/5.0 (Windows NT 10.0; Win64; x64) AppleWebKit/537.36 (KHTML, like Gecko) Chrome/139.0.0.0 Safari/537.36" version="28.1.0">
  <diagram name="Page-1" id="yCXQ9Oidx16h1RXyqVqT">
    <mxGraphModel dx="4100" dy="1668" grid="1" gridSize="10" guides="1" tooltips="1" connect="1" arrows="1" fold="1" page="1" pageScale="1" pageWidth="850" pageHeight="1100" math="0" shadow="0">
      <root>
        <mxCell id="0" />
        <mxCell id="1" parent="0" />
        <mxCell id="Zuvuwn8Xw8icW_HcA-dr-4" value="&lt;span id=&quot;docs-internal-guid-a5630eb6-7fff-48e8-3492-5715cc49be34&quot;&gt;&lt;span style=&quot;font-size: 14pt; font-family: &amp;quot;Times New Roman&amp;quot;, serif; color: rgb(0, 0, 0); background-color: transparent; font-weight: 700; font-variant-numeric: normal; font-variant-east-asian: normal; font-variant-alternates: normal; font-variant-position: normal; font-variant-emoji: normal; vertical-align: baseline; white-space-collapse: preserve;&quot;&gt;Institution&lt;/span&gt;&lt;/span&gt;" style="whiteSpace=wrap;html=1;align=center;" vertex="1" parent="1">
          <mxGeometry x="396.95" y="114" width="100" height="40" as="geometry" />
        </mxCell>
        <mxCell id="Zuvuwn8Xw8icW_HcA-dr-5" value="CASE" style="whiteSpace=wrap;html=1;align=center;" vertex="1" parent="1">
          <mxGeometry x="85" y="240" width="100" height="40" as="geometry" />
        </mxCell>
        <mxCell id="Zuvuwn8Xw8icW_HcA-dr-7" value="&lt;span id=&quot;docs-internal-guid-792160cb-7fff-7376-8f27-7b8e5bacf485&quot;&gt;&lt;span style=&quot;font-size: 14pt; font-family: &amp;quot;Times New Roman&amp;quot;, serif; color: rgb(0, 0, 0); background-color: transparent; font-weight: 700; font-variant-numeric: normal; font-variant-east-asian: normal; font-variant-alternates: normal; font-variant-position: normal; font-variant-emoji: normal; vertical-align: baseline; white-space-collapse: preserve;&quot;&gt;Analytics&lt;/span&gt;&lt;span style=&quot;font-size: 14pt; font-family: &amp;quot;Times New Roman&amp;quot;, serif; color: rgb(0, 0, 0); background-color: transparent; font-variant-numeric: normal; font-variant-east-asian: normal; font-variant-alternates: normal; font-variant-position: normal; font-variant-emoji: normal; vertical-align: baseline; white-space-collapse: preserve;&quot;&gt; &lt;/span&gt;&lt;/span&gt;" style="whiteSpace=wrap;html=1;align=center;" vertex="1" parent="1">
          <mxGeometry x="690" y="400" width="90" height="30" as="geometry" />
        </mxCell>
        <mxCell id="Zuvuwn8Xw8icW_HcA-dr-8" value="RANKING" style="whiteSpace=wrap;html=1;align=center;" vertex="1" parent="1">
          <mxGeometry x="630" y="180" width="100" height="40" as="geometry" />
        </mxCell>
        <mxCell id="Zuvuwn8Xw8icW_HcA-dr-10" value="REPORTS" style="whiteSpace=wrap;html=1;align=center;" vertex="1" parent="1">
          <mxGeometry x="650" y="607.54" width="100" height="40" as="geometry" />
        </mxCell>
        <mxCell id="Zuvuwn8Xw8icW_HcA-dr-12" value="CASE_ID" style="ellipse;whiteSpace=wrap;html=1;align=center;fontStyle=4;" vertex="1" parent="1">
          <mxGeometry x="70" y="160" width="100" height="30" as="geometry" />
        </mxCell>
        <mxCell id="Zuvuwn8Xw8icW_HcA-dr-166" value="USER" style="whiteSpace=wrap;html=1;align=center;" vertex="1" parent="1">
          <mxGeometry x="170" y="630" width="110" height="35.54" as="geometry" />
        </mxCell>
        <mxCell id="Zuvuwn8Xw8icW_HcA-dr-167" value="USER_ID" style="ellipse;whiteSpace=wrap;html=1;align=center;fontStyle=4;rotation=-15;" vertex="1" parent="1">
          <mxGeometry x="90" y="535.5352540378444" width="70" height="20" as="geometry" />
        </mxCell>
        <mxCell id="Zuvuwn8Xw8icW_HcA-dr-168" value="" style="endArrow=none;html=1;rounded=0;entryX=0.25;entryY=0;entryDx=0;entryDy=0;exitX=0.5;exitY=1;exitDx=0;exitDy=0;" edge="1" parent="1" target="Zuvuwn8Xw8icW_HcA-dr-166" source="Zuvuwn8Xw8icW_HcA-dr-167">
          <mxGeometry relative="1" as="geometry">
            <mxPoint x="180" y="605.5352540378444" as="sourcePoint" />
            <mxPoint x="340" y="605.5352540378444" as="targetPoint" />
          </mxGeometry>
        </mxCell>
        <mxCell id="Zuvuwn8Xw8icW_HcA-dr-169" value="NAME" style="ellipse;whiteSpace=wrap;html=1;align=center;" vertex="1" parent="1">
          <mxGeometry x="30" y="585.5352540378444" width="50" height="20" as="geometry" />
        </mxCell>
        <mxCell id="Zuvuwn8Xw8icW_HcA-dr-170" value="EMAIL" style="ellipse;whiteSpace=wrap;html=1;align=center;" vertex="1" parent="1">
          <mxGeometry x="2.5" y="627.5352540378444" width="55" height="20" as="geometry" />
        </mxCell>
        <mxCell id="Zuvuwn8Xw8icW_HcA-dr-171" value="PHONE" style="ellipse;whiteSpace=wrap;html=1;align=center;" vertex="1" parent="1">
          <mxGeometry y="739.9952540378445" width="65" height="20" as="geometry" />
        </mxCell>
        <mxCell id="Zuvuwn8Xw8icW_HcA-dr-172" value="&lt;font style=&quot;font-size: 8px;&quot;&gt;DOB&lt;/font&gt;" style="ellipse;whiteSpace=wrap;html=1;align=center;" vertex="1" parent="1">
          <mxGeometry x="120" y="705.54" width="30" height="14.46" as="geometry" />
        </mxCell>
        <mxCell id="Zuvuwn8Xw8icW_HcA-dr-173" value="" style="endArrow=none;html=1;rounded=0;entryX=0;entryY=0.25;entryDx=0;entryDy=0;exitX=1;exitY=1;exitDx=0;exitDy=0;" edge="1" parent="1" target="Zuvuwn8Xw8icW_HcA-dr-166" source="Zuvuwn8Xw8icW_HcA-dr-169">
          <mxGeometry relative="1" as="geometry">
            <mxPoint x="160" y="627.5352540378444" as="sourcePoint" />
            <mxPoint x="320" y="627.5352540378444" as="targetPoint" />
          </mxGeometry>
        </mxCell>
        <mxCell id="Zuvuwn8Xw8icW_HcA-dr-174" value="" style="endArrow=none;html=1;rounded=0;exitX=1;exitY=0.5;exitDx=0;exitDy=0;entryX=0;entryY=0.75;entryDx=0;entryDy=0;" edge="1" parent="1" source="Zuvuwn8Xw8icW_HcA-dr-170" target="Zuvuwn8Xw8icW_HcA-dr-166">
          <mxGeometry relative="1" as="geometry">
            <mxPoint x="170" y="655.1152540378444" as="sourcePoint" />
            <mxPoint x="160" y="650" as="targetPoint" />
          </mxGeometry>
        </mxCell>
        <mxCell id="Zuvuwn8Xw8icW_HcA-dr-175" value="" style="endArrow=none;html=1;rounded=0;exitX=1;exitY=0.5;exitDx=0;exitDy=0;entryX=0.07;entryY=0.949;entryDx=0;entryDy=0;entryPerimeter=0;" edge="1" parent="1" source="Zuvuwn8Xw8icW_HcA-dr-171" target="Zuvuwn8Xw8icW_HcA-dr-166">
          <mxGeometry relative="1" as="geometry">
            <mxPoint x="165" y="685.1152540378444" as="sourcePoint" />
            <mxPoint x="170" y="666" as="targetPoint" />
          </mxGeometry>
        </mxCell>
        <mxCell id="Zuvuwn8Xw8icW_HcA-dr-176" value="" style="endArrow=none;html=1;rounded=0;exitX=0.5;exitY=0;exitDx=0;exitDy=0;entryX=0.153;entryY=0.966;entryDx=0;entryDy=0;entryPerimeter=0;" edge="1" parent="1" source="Zuvuwn8Xw8icW_HcA-dr-172" target="Zuvuwn8Xw8icW_HcA-dr-166">
          <mxGeometry relative="1" as="geometry">
            <mxPoint x="130" y="695.5352540378444" as="sourcePoint" />
            <mxPoint x="200" y="675.5352540378444" as="targetPoint" />
          </mxGeometry>
        </mxCell>
        <mxCell id="Zuvuwn8Xw8icW_HcA-dr-177" value="ADRESS" style="ellipse;whiteSpace=wrap;html=1;align=center;" vertex="1" parent="1">
          <mxGeometry x="190" y="685.5352540378444" width="70" height="20" as="geometry" />
        </mxCell>
        <mxCell id="Zuvuwn8Xw8icW_HcA-dr-178" value="" style="endArrow=none;html=1;rounded=0;entryX=0.334;entryY=1.017;entryDx=0;entryDy=0;entryPerimeter=0;" edge="1" parent="1" target="Zuvuwn8Xw8icW_HcA-dr-166">
          <mxGeometry relative="1" as="geometry">
            <mxPoint x="220" y="685" as="sourcePoint" />
            <mxPoint x="380" y="675.5352540378444" as="targetPoint" />
          </mxGeometry>
        </mxCell>
        <mxCell id="Zuvuwn8Xw8icW_HcA-dr-179" value="NATIONAL_ID" style="ellipse;whiteSpace=wrap;html=1;align=center;rotation=-15;" vertex="1" parent="1">
          <mxGeometry x="320" y="635.5352540378444" width="85" height="20" as="geometry" />
        </mxCell>
        <mxCell id="Zuvuwn8Xw8icW_HcA-dr-180" value="DOB" style="ellipse;whiteSpace=wrap;html=1;align=center;rotation=15;" vertex="1" parent="1">
          <mxGeometry x="255" y="599.9952540378445" width="60" height="20" as="geometry" />
        </mxCell>
        <mxCell id="Zuvuwn8Xw8icW_HcA-dr-181" value="CITY" style="ellipse;whiteSpace=wrap;html=1;align=center;" vertex="1" parent="1">
          <mxGeometry x="200" y="765.5352540378444" width="50" height="20" as="geometry" />
        </mxCell>
        <mxCell id="Zuvuwn8Xw8icW_HcA-dr-182" value="STREET" style="ellipse;whiteSpace=wrap;html=1;align=center;" vertex="1" parent="1">
          <mxGeometry x="160" y="745.54" width="55" height="20" as="geometry" />
        </mxCell>
        <mxCell id="Zuvuwn8Xw8icW_HcA-dr-183" value="POSTAL_CODE" style="ellipse;whiteSpace=wrap;html=1;align=center;rotation=-15;" vertex="1" parent="1">
          <mxGeometry x="220" y="722.7652540378444" width="100" height="20" as="geometry" />
        </mxCell>
        <mxCell id="Zuvuwn8Xw8icW_HcA-dr-184" value="" style="endArrow=none;html=1;rounded=0;entryX=0.5;entryY=1;entryDx=0;entryDy=0;" edge="1" parent="1" target="Zuvuwn8Xw8icW_HcA-dr-177">
          <mxGeometry relative="1" as="geometry">
            <mxPoint x="185" y="744.5352540378444" as="sourcePoint" />
            <mxPoint x="345" y="744.5352540378444" as="targetPoint" />
          </mxGeometry>
        </mxCell>
        <mxCell id="Zuvuwn8Xw8icW_HcA-dr-185" value="" style="endArrow=none;html=1;rounded=0;entryX=0.377;entryY=0.093;entryDx=0;entryDy=0;entryPerimeter=0;exitX=0.614;exitY=1.1;exitDx=0;exitDy=0;exitPerimeter=0;" edge="1" parent="1" source="Zuvuwn8Xw8icW_HcA-dr-177" target="Zuvuwn8Xw8icW_HcA-dr-183">
          <mxGeometry relative="1" as="geometry">
            <mxPoint x="230" y="715.0352540378444" as="sourcePoint" />
            <mxPoint x="390" y="715.0352540378444" as="targetPoint" />
          </mxGeometry>
        </mxCell>
        <mxCell id="Zuvuwn8Xw8icW_HcA-dr-186" value="" style="endArrow=none;html=1;rounded=0;entryX=0.38;entryY=-0.033;entryDx=0;entryDy=0;entryPerimeter=0;" edge="1" parent="1" target="Zuvuwn8Xw8icW_HcA-dr-181">
          <mxGeometry relative="1" as="geometry">
            <mxPoint x="220" y="705.5352540378444" as="sourcePoint" />
            <mxPoint x="370" y="715.0352540378444" as="targetPoint" />
          </mxGeometry>
        </mxCell>
        <mxCell id="Zuvuwn8Xw8icW_HcA-dr-187" value="SUBSCRIPTIONS" style="ellipse;shape=doubleEllipse;margin=3;whiteSpace=wrap;html=1;align=center;rotation=-15;" vertex="1" parent="1">
          <mxGeometry x="320" y="680.5352540378444" width="110" height="30" as="geometry" />
        </mxCell>
        <mxCell id="Zuvuwn8Xw8icW_HcA-dr-188" value="" style="endArrow=none;html=1;rounded=0;entryX=0.216;entryY=0.186;entryDx=0;entryDy=0;entryPerimeter=0;exitX=0.61;exitY=1;exitDx=0;exitDy=0;exitPerimeter=0;" edge="1" parent="1" source="Zuvuwn8Xw8icW_HcA-dr-166" target="Zuvuwn8Xw8icW_HcA-dr-187">
          <mxGeometry relative="1" as="geometry">
            <mxPoint x="250" y="667.5352540378444" as="sourcePoint" />
            <mxPoint x="410" y="667.5352540378444" as="targetPoint" />
          </mxGeometry>
        </mxCell>
        <mxCell id="Zuvuwn8Xw8icW_HcA-dr-189" value="" style="endArrow=none;html=1;rounded=0;entryX=0.66;entryY=0.068;entryDx=0;entryDy=0;entryPerimeter=0;exitX=0.316;exitY=0.962;exitDx=0;exitDy=0;exitPerimeter=0;" edge="1" parent="1" source="Zuvuwn8Xw8icW_HcA-dr-180" target="Zuvuwn8Xw8icW_HcA-dr-166">
          <mxGeometry relative="1" as="geometry">
            <mxPoint x="240" y="595.5352540378444" as="sourcePoint" />
            <mxPoint x="395" y="575.5352540378444" as="targetPoint" />
            <Array as="points" />
          </mxGeometry>
        </mxCell>
        <mxCell id="Zuvuwn8Xw8icW_HcA-dr-190" value="" style="endArrow=none;html=1;rounded=0;entryX=0;entryY=0.5;entryDx=0;entryDy=0;" edge="1" parent="1" target="Zuvuwn8Xw8icW_HcA-dr-179">
          <mxGeometry relative="1" as="geometry">
            <mxPoint x="280" y="647.5352540378444" as="sourcePoint" />
            <mxPoint x="430" y="647.5352540378444" as="targetPoint" />
          </mxGeometry>
        </mxCell>
        <mxCell id="Zuvuwn8Xw8icW_HcA-dr-191" value="ROLE" style="ellipse;whiteSpace=wrap;html=1;align=center;rotation=15;" vertex="1" parent="1">
          <mxGeometry x="329.45" y="604.2" width="67.5" height="20" as="geometry" />
        </mxCell>
        <mxCell id="Zuvuwn8Xw8icW_HcA-dr-192" value="" style="endArrow=none;html=1;rounded=0;entryX=0.37;entryY=0.978;entryDx=0;entryDy=0;entryPerimeter=0;exitX=1;exitY=0.25;exitDx=0;exitDy=0;" edge="1" parent="1" source="Zuvuwn8Xw8icW_HcA-dr-166" target="Zuvuwn8Xw8icW_HcA-dr-191">
          <mxGeometry relative="1" as="geometry">
            <mxPoint x="290" y="624.9452540378444" as="sourcePoint" />
            <mxPoint x="450" y="624.9452540378444" as="targetPoint" />
          </mxGeometry>
        </mxCell>
        <mxCell id="Zuvuwn8Xw8icW_HcA-dr-193" value="" style="endArrow=none;html=1;rounded=0;entryX=0.5;entryY=1;entryDx=0;entryDy=0;exitX=0.5;exitY=0;exitDx=0;exitDy=0;" edge="1" parent="1" target="Zuvuwn8Xw8icW_HcA-dr-195" source="Zuvuwn8Xw8icW_HcA-dr-191">
          <mxGeometry relative="1" as="geometry">
            <mxPoint x="370" y="600" as="sourcePoint" />
            <mxPoint x="475" y="575.5352540378444" as="targetPoint" />
          </mxGeometry>
        </mxCell>
        <mxCell id="Zuvuwn8Xw8icW_HcA-dr-194" value="" style="endArrow=none;html=1;rounded=0;entryX=0;entryY=0;entryDx=0;entryDy=0;exitX=0.5;exitY=1;exitDx=0;exitDy=0;" edge="1" parent="1" target="Zuvuwn8Xw8icW_HcA-dr-191" source="Zuvuwn8Xw8icW_HcA-dr-196">
          <mxGeometry relative="1" as="geometry">
            <mxPoint x="300" y="555.5352540378444" as="sourcePoint" />
            <mxPoint x="300" y="565.5352540378444" as="targetPoint" />
          </mxGeometry>
        </mxCell>
        <mxCell id="Zuvuwn8Xw8icW_HcA-dr-195" value="CITYZEN" style="ellipse;whiteSpace=wrap;html=1;align=center;rotation=30;" vertex="1" parent="1">
          <mxGeometry x="370" y="559.9952540378445" width="67.5" height="20" as="geometry" />
        </mxCell>
        <mxCell id="Zuvuwn8Xw8icW_HcA-dr-196" value="ADMIN" style="ellipse;whiteSpace=wrap;html=1;align=center;" vertex="1" parent="1">
          <mxGeometry x="300" y="540" width="70" height="20" as="geometry" />
        </mxCell>
        <mxCell id="Zuvuwn8Xw8icW_HcA-dr-197" value="GENDER" style="ellipse;whiteSpace=wrap;html=1;align=center;" vertex="1" parent="1">
          <mxGeometry x="180" y="525.5352540378444" width="70" height="20" as="geometry" />
        </mxCell>
        <mxCell id="Zuvuwn8Xw8icW_HcA-dr-198" value="" style="endArrow=none;html=1;rounded=0;entryX=0.5;entryY=0;entryDx=0;entryDy=0;exitX=0.5;exitY=1;exitDx=0;exitDy=0;" edge="1" parent="1" target="Zuvuwn8Xw8icW_HcA-dr-166" source="Zuvuwn8Xw8icW_HcA-dr-197">
          <mxGeometry relative="1" as="geometry">
            <mxPoint x="220" y="575.5352540378444" as="sourcePoint" />
            <mxPoint x="230" y="615.5352540378444" as="targetPoint" />
          </mxGeometry>
        </mxCell>
        <mxCell id="Zuvuwn8Xw8icW_HcA-dr-199" value="AGE" style="ellipse;whiteSpace=wrap;html=1;align=center;dashed=1;" vertex="1" parent="1">
          <mxGeometry x="10" y="675.5352540378444" width="40" height="20" as="geometry" />
        </mxCell>
        <mxCell id="Zuvuwn8Xw8icW_HcA-dr-200" value="" style="endArrow=none;html=1;rounded=0;exitX=1;exitY=0.5;exitDx=0;exitDy=0;" edge="1" parent="1" source="Zuvuwn8Xw8icW_HcA-dr-199">
          <mxGeometry relative="1" as="geometry">
            <mxPoint x="60" y="690" as="sourcePoint" />
            <mxPoint x="180" y="665.5352540378444" as="targetPoint" />
          </mxGeometry>
        </mxCell>
        <mxCell id="Zuvuwn8Xw8icW_HcA-dr-212" value="STATUS" style="ellipse;whiteSpace=wrap;html=1;align=center;" vertex="1" parent="1">
          <mxGeometry x="20" y="200" width="60" height="20" as="geometry" />
        </mxCell>
        <mxCell id="Zuvuwn8Xw8icW_HcA-dr-213" value="" style="endArrow=none;html=1;rounded=0;entryX=0;entryY=0;entryDx=0;entryDy=0;" edge="1" parent="1" target="Zuvuwn8Xw8icW_HcA-dr-5">
          <mxGeometry relative="1" as="geometry">
            <mxPoint x="50" y="220" as="sourcePoint" />
            <mxPoint x="210" y="220" as="targetPoint" />
          </mxGeometry>
        </mxCell>
        <mxCell id="Zuvuwn8Xw8icW_HcA-dr-214" value="" style="endArrow=none;html=1;rounded=0;entryX=0.25;entryY=0;entryDx=0;entryDy=0;" edge="1" parent="1" target="Zuvuwn8Xw8icW_HcA-dr-5">
          <mxGeometry relative="1" as="geometry">
            <mxPoint x="110" y="190" as="sourcePoint" />
            <mxPoint x="270" y="190" as="targetPoint" />
          </mxGeometry>
        </mxCell>
        <mxCell id="Zuvuwn8Xw8icW_HcA-dr-215" value="TIMELINE" style="ellipse;whiteSpace=wrap;html=1;align=center;" vertex="1" parent="1">
          <mxGeometry x="30" y="300" width="80" height="40" as="geometry" />
        </mxCell>
        <mxCell id="Zuvuwn8Xw8icW_HcA-dr-216" value="DATE" style="ellipse;whiteSpace=wrap;html=1;align=center;" vertex="1" parent="1">
          <mxGeometry x="15" y="360" width="70" height="20" as="geometry" />
        </mxCell>
        <mxCell id="Zuvuwn8Xw8icW_HcA-dr-217" value="NOTE" style="ellipse;whiteSpace=wrap;html=1;align=center;" vertex="1" parent="1">
          <mxGeometry x="95" y="350" width="70" height="20" as="geometry" />
        </mxCell>
        <mxCell id="Zuvuwn8Xw8icW_HcA-dr-218" value="" style="endArrow=none;html=1;rounded=0;entryX=0.5;entryY=0;entryDx=0;entryDy=0;exitX=0.295;exitY=0.98;exitDx=0;exitDy=0;exitPerimeter=0;" edge="1" parent="1" source="Zuvuwn8Xw8icW_HcA-dr-215" target="Zuvuwn8Xw8icW_HcA-dr-216">
          <mxGeometry relative="1" as="geometry">
            <mxPoint x="65" y="340" as="sourcePoint" />
            <mxPoint x="225" y="340" as="targetPoint" />
          </mxGeometry>
        </mxCell>
        <mxCell id="Zuvuwn8Xw8icW_HcA-dr-219" value="" style="endArrow=none;html=1;rounded=0;entryX=0.5;entryY=0;entryDx=0;entryDy=0;exitX=1;exitY=1;exitDx=0;exitDy=0;" edge="1" parent="1" source="Zuvuwn8Xw8icW_HcA-dr-215" target="Zuvuwn8Xw8icW_HcA-dr-217">
          <mxGeometry relative="1" as="geometry">
            <mxPoint x="110" y="340" as="sourcePoint" />
            <mxPoint x="270" y="340" as="targetPoint" />
          </mxGeometry>
        </mxCell>
        <mxCell id="Zuvuwn8Xw8icW_HcA-dr-220" value="" style="endArrow=none;html=1;rounded=0;entryX=0;entryY=1;entryDx=0;entryDy=0;" edge="1" parent="1" target="Zuvuwn8Xw8icW_HcA-dr-5">
          <mxGeometry relative="1" as="geometry">
            <mxPoint x="70" y="300" as="sourcePoint" />
            <mxPoint x="230" y="300" as="targetPoint" />
          </mxGeometry>
        </mxCell>
        <mxCell id="Zuvuwn8Xw8icW_HcA-dr-222" value="ASSIGNED_AGENCY" style="ellipse;whiteSpace=wrap;html=1;align=center;rotation=15;" vertex="1" parent="1">
          <mxGeometry x="150" y="190" width="130" height="40" as="geometry" />
        </mxCell>
        <mxCell id="Zuvuwn8Xw8icW_HcA-dr-223" value="" style="endArrow=none;html=1;rounded=0;entryX=0;entryY=1;entryDx=0;entryDy=0;" edge="1" parent="1" target="Zuvuwn8Xw8icW_HcA-dr-222">
          <mxGeometry relative="1" as="geometry">
            <mxPoint x="150" y="240" as="sourcePoint" />
            <mxPoint x="185" y="210" as="targetPoint" />
          </mxGeometry>
        </mxCell>
        <mxCell id="Zuvuwn8Xw8icW_HcA-dr-224" value="UPDATES" style="shape=rhombus;perimeter=rhombusPerimeter;whiteSpace=wrap;html=1;align=center;rotation=30;" vertex="1" parent="1">
          <mxGeometry x="205" y="370" width="120" height="60" as="geometry" />
        </mxCell>
        <mxCell id="Zuvuwn8Xw8icW_HcA-dr-225" value="" style="endArrow=none;html=1;rounded=0;entryX=1;entryY=1;entryDx=0;entryDy=0;exitX=0;exitY=0.5;exitDx=0;exitDy=0;" edge="1" parent="1" source="Zuvuwn8Xw8icW_HcA-dr-224" target="Zuvuwn8Xw8icW_HcA-dr-5">
          <mxGeometry relative="1" as="geometry">
            <mxPoint x="209.9984757729337" y="358.9999999999999" as="sourcePoint" />
            <mxPoint x="170" y="280" as="targetPoint" />
          </mxGeometry>
        </mxCell>
        <mxCell id="Zuvuwn8Xw8icW_HcA-dr-226" value="M" style="resizable=0;html=1;whiteSpace=wrap;align=left;verticalAlign=bottom;" connectable="0" vertex="1" parent="Zuvuwn8Xw8icW_HcA-dr-225">
          <mxGeometry x="-1" relative="1" as="geometry">
            <mxPoint x="-3" y="-29" as="offset" />
          </mxGeometry>
        </mxCell>
        <mxCell id="Zuvuwn8Xw8icW_HcA-dr-229" value="" style="endArrow=none;html=1;rounded=0;entryX=1;entryY=0.5;entryDx=0;entryDy=0;" edge="1" parent="1" target="Zuvuwn8Xw8icW_HcA-dr-224">
          <mxGeometry relative="1" as="geometry">
            <mxPoint x="228" y="630" as="sourcePoint" />
            <mxPoint x="320.00152422706634" y="435.54" as="targetPoint" />
          </mxGeometry>
        </mxCell>
        <mxCell id="Zuvuwn8Xw8icW_HcA-dr-231" value="N" style="resizable=0;html=1;whiteSpace=wrap;align=right;verticalAlign=bottom;" connectable="0" vertex="1" parent="Zuvuwn8Xw8icW_HcA-dr-229">
          <mxGeometry x="1" relative="1" as="geometry">
            <mxPoint x="3" y="70" as="offset" />
          </mxGeometry>
        </mxCell>
        <mxCell id="Zuvuwn8Xw8icW_HcA-dr-232" value="INSTITUTION_ID" style="ellipse;whiteSpace=wrap;html=1;align=center;fontStyle=4;rotation=-15;" vertex="1" parent="1">
          <mxGeometry x="315" y="50" width="100" height="40" as="geometry" />
        </mxCell>
        <mxCell id="Zuvuwn8Xw8icW_HcA-dr-233" value="" style="endArrow=none;html=1;rounded=0;entryX=0;entryY=0;entryDx=0;entryDy=0;" edge="1" parent="1" target="Zuvuwn8Xw8icW_HcA-dr-4">
          <mxGeometry relative="1" as="geometry">
            <mxPoint x="370" y="90" as="sourcePoint" />
            <mxPoint x="400" y="110" as="targetPoint" />
          </mxGeometry>
        </mxCell>
        <mxCell id="Zuvuwn8Xw8icW_HcA-dr-234" value="REGION" style="ellipse;whiteSpace=wrap;html=1;align=center;rotation=15;" vertex="1" parent="1">
          <mxGeometry x="470" y="50" width="100" height="40" as="geometry" />
        </mxCell>
        <mxCell id="Zuvuwn8Xw8icW_HcA-dr-235" value="" style="endArrow=none;html=1;rounded=0;entryX=0.339;entryY=1.051;entryDx=0;entryDy=0;entryPerimeter=0;" edge="1" parent="1" target="Zuvuwn8Xw8icW_HcA-dr-234">
          <mxGeometry relative="1" as="geometry">
            <mxPoint x="450" y="114" as="sourcePoint" />
            <mxPoint x="610" y="114" as="targetPoint" />
          </mxGeometry>
        </mxCell>
        <mxCell id="Zuvuwn8Xw8icW_HcA-dr-236" value="NAME" style="ellipse;whiteSpace=wrap;html=1;align=center;" vertex="1" parent="1">
          <mxGeometry x="390" y="10" width="100" height="40" as="geometry" />
        </mxCell>
        <mxCell id="Zuvuwn8Xw8icW_HcA-dr-237" value="" style="endArrow=none;html=1;rounded=0;entryX=0.25;entryY=0;entryDx=0;entryDy=0;exitX=0.5;exitY=1;exitDx=0;exitDy=0;" edge="1" parent="1" source="Zuvuwn8Xw8icW_HcA-dr-236" target="Zuvuwn8Xw8icW_HcA-dr-4">
          <mxGeometry relative="1" as="geometry">
            <mxPoint x="425" y="48.66999999999999" as="sourcePoint" />
            <mxPoint x="585" y="48.66999999999999" as="targetPoint" />
          </mxGeometry>
        </mxCell>
        <mxCell id="Zuvuwn8Xw8icW_HcA-dr-239" value="TYPE" style="ellipse;whiteSpace=wrap;html=1;align=center;" vertex="1" parent="1">
          <mxGeometry x="530" y="114" width="60" height="30" as="geometry" />
        </mxCell>
        <mxCell id="Zuvuwn8Xw8icW_HcA-dr-240" value="" style="endArrow=none;html=1;rounded=0;entryX=0;entryY=0.5;entryDx=0;entryDy=0;" edge="1" parent="1" target="Zuvuwn8Xw8icW_HcA-dr-239">
          <mxGeometry relative="1" as="geometry">
            <mxPoint x="496.95" y="128.32999999999998" as="sourcePoint" />
            <mxPoint x="656.95" y="128.32999999999998" as="targetPoint" />
          </mxGeometry>
        </mxCell>
        <mxCell id="Zuvuwn8Xw8icW_HcA-dr-241" value="HANDLE" style="shape=rhombus;perimeter=rhombusPerimeter;whiteSpace=wrap;html=1;align=center;rotation=-45;" vertex="1" parent="1">
          <mxGeometry x="295" y="210" width="120" height="60" as="geometry" />
        </mxCell>
        <mxCell id="Zuvuwn8Xw8icW_HcA-dr-244" value="" style="endArrow=none;html=1;rounded=0;exitX=1;exitY=1;exitDx=0;exitDy=0;entryX=0;entryY=0.5;entryDx=0;entryDy=0;" edge="1" parent="1" source="Zuvuwn8Xw8icW_HcA-dr-5" target="Zuvuwn8Xw8icW_HcA-dr-241">
          <mxGeometry relative="1" as="geometry">
            <mxPoint x="300" y="240" as="sourcePoint" />
            <mxPoint x="460" y="240" as="targetPoint" />
          </mxGeometry>
        </mxCell>
        <mxCell id="Zuvuwn8Xw8icW_HcA-dr-245" value="N" style="resizable=0;html=1;whiteSpace=wrap;align=right;verticalAlign=bottom;" connectable="0" vertex="1" parent="Zuvuwn8Xw8icW_HcA-dr-244">
          <mxGeometry x="1" relative="1" as="geometry">
            <mxPoint x="-47" y="-12" as="offset" />
          </mxGeometry>
        </mxCell>
        <mxCell id="Zuvuwn8Xw8icW_HcA-dr-248" value="" style="endArrow=none;html=1;rounded=0;exitX=0;exitY=1;exitDx=0;exitDy=0;entryX=1;entryY=0.5;entryDx=0;entryDy=0;" edge="1" parent="1" source="Zuvuwn8Xw8icW_HcA-dr-4" target="Zuvuwn8Xw8icW_HcA-dr-241">
          <mxGeometry relative="1" as="geometry">
            <mxPoint x="300" y="240" as="sourcePoint" />
            <mxPoint x="460" y="240" as="targetPoint" />
          </mxGeometry>
        </mxCell>
        <mxCell id="Zuvuwn8Xw8icW_HcA-dr-249" value="1" style="resizable=0;html=1;whiteSpace=wrap;align=right;verticalAlign=bottom;" connectable="0" vertex="1" parent="Zuvuwn8Xw8icW_HcA-dr-248">
          <mxGeometry x="1" relative="1" as="geometry">
            <mxPoint x="-7" y="-23" as="offset" />
          </mxGeometry>
        </mxCell>
        <mxCell id="Zuvuwn8Xw8icW_HcA-dr-251" value="&lt;span style=&quot;border-bottom: 1px dotted&quot;&gt;RANKING_ID&lt;/span&gt;" style="ellipse;whiteSpace=wrap;html=1;align=center;" vertex="1" parent="1">
          <mxGeometry x="640" y="124" width="90" height="20" as="geometry" />
        </mxCell>
        <mxCell id="Zuvuwn8Xw8icW_HcA-dr-252" value="RANKING_TYPE" style="ellipse;whiteSpace=wrap;html=1;align=center;rotation=30;" vertex="1" parent="1">
          <mxGeometry x="740" y="180" width="100" height="30" as="geometry" />
        </mxCell>
        <mxCell id="Zuvuwn8Xw8icW_HcA-dr-255" value="" style="endArrow=none;html=1;rounded=0;entryX=0.5;entryY=1;entryDx=0;entryDy=0;exitX=0.5;exitY=0;exitDx=0;exitDy=0;" edge="1" parent="1" source="Zuvuwn8Xw8icW_HcA-dr-8" target="Zuvuwn8Xw8icW_HcA-dr-251">
          <mxGeometry relative="1" as="geometry">
            <mxPoint x="630" y="170" as="sourcePoint" />
            <mxPoint x="790" y="170" as="targetPoint" />
          </mxGeometry>
        </mxCell>
        <mxCell id="Zuvuwn8Xw8icW_HcA-dr-256" value="" style="endArrow=none;html=1;rounded=0;entryX=0.364;entryY=1.057;entryDx=0;entryDy=0;entryPerimeter=0;exitX=1;exitY=0.5;exitDx=0;exitDy=0;" edge="1" parent="1" source="Zuvuwn8Xw8icW_HcA-dr-8" target="Zuvuwn8Xw8icW_HcA-dr-252">
          <mxGeometry relative="1" as="geometry">
            <mxPoint x="610" y="280" as="sourcePoint" />
            <mxPoint x="770" y="280" as="targetPoint" />
          </mxGeometry>
        </mxCell>
        <mxCell id="Zuvuwn8Xw8icW_HcA-dr-261" value="SCORE" style="ellipse;whiteSpace=wrap;html=1;align=center;" vertex="1" parent="1">
          <mxGeometry x="670" y="245" width="80" height="30" as="geometry" />
        </mxCell>
        <mxCell id="Zuvuwn8Xw8icW_HcA-dr-263" value="" style="endArrow=none;html=1;rounded=0;entryX=0.315;entryY=-0.019;entryDx=0;entryDy=0;entryPerimeter=0;exitX=0.5;exitY=1;exitDx=0;exitDy=0;" edge="1" parent="1" source="Zuvuwn8Xw8icW_HcA-dr-8" target="Zuvuwn8Xw8icW_HcA-dr-261">
          <mxGeometry relative="1" as="geometry">
            <mxPoint x="520" y="180" as="sourcePoint" />
            <mxPoint x="680" y="180" as="targetPoint" />
          </mxGeometry>
        </mxCell>
        <mxCell id="Zuvuwn8Xw8icW_HcA-dr-264" value="EVALUATE" style="shape=rhombus;double=1;perimeter=rhombusPerimeter;whiteSpace=wrap;html=1;align=center;rotation=15;" vertex="1" parent="1">
          <mxGeometry x="496.95000000000005" y="174.91" width="100" height="40.17" as="geometry" />
        </mxCell>
        <mxCell id="Zuvuwn8Xw8icW_HcA-dr-265" value="" style="endArrow=none;html=1;rounded=0;exitX=0;exitY=0.5;exitDx=0;exitDy=0;entryX=1;entryY=1;entryDx=0;entryDy=0;" edge="1" parent="1" source="Zuvuwn8Xw8icW_HcA-dr-264" target="Zuvuwn8Xw8icW_HcA-dr-4">
          <mxGeometry relative="1" as="geometry">
            <mxPoint x="520" y="180" as="sourcePoint" />
            <mxPoint x="680" y="180" as="targetPoint" />
          </mxGeometry>
        </mxCell>
        <mxCell id="Zuvuwn8Xw8icW_HcA-dr-266" value="1" style="resizable=0;html=1;whiteSpace=wrap;align=right;verticalAlign=bottom;" connectable="0" vertex="1" parent="Zuvuwn8Xw8icW_HcA-dr-265">
          <mxGeometry x="1" relative="1" as="geometry">
            <mxPoint x="-7" y="26" as="offset" />
          </mxGeometry>
        </mxCell>
        <mxCell id="Zuvuwn8Xw8icW_HcA-dr-267" value="" style="endArrow=none;html=1;rounded=0;exitX=1;exitY=0.5;exitDx=0;exitDy=0;entryX=0;entryY=1;entryDx=0;entryDy=0;" edge="1" parent="1" source="Zuvuwn8Xw8icW_HcA-dr-264" target="Zuvuwn8Xw8icW_HcA-dr-8">
          <mxGeometry relative="1" as="geometry">
            <mxPoint x="520" y="180" as="sourcePoint" />
            <mxPoint x="680" y="180" as="targetPoint" />
          </mxGeometry>
        </mxCell>
        <mxCell id="Zuvuwn8Xw8icW_HcA-dr-268" value="N" style="resizable=0;html=1;whiteSpace=wrap;align=right;verticalAlign=bottom;" connectable="0" vertex="1" parent="Zuvuwn8Xw8icW_HcA-dr-267">
          <mxGeometry x="1" relative="1" as="geometry">
            <mxPoint x="-11" y="-10" as="offset" />
          </mxGeometry>
        </mxCell>
        <mxCell id="Zuvuwn8Xw8icW_HcA-dr-270" value="ANALYTIC_ID" style="ellipse;whiteSpace=wrap;html=1;align=center;fontStyle=4;" vertex="1" parent="1">
          <mxGeometry x="680" y="330" width="80" height="30" as="geometry" />
        </mxCell>
        <mxCell id="Zuvuwn8Xw8icW_HcA-dr-271" value="TYPE" style="ellipse;whiteSpace=wrap;html=1;align=center;rotation=45;" vertex="1" parent="1">
          <mxGeometry x="770" y="360" width="70" height="30" as="geometry" />
        </mxCell>
        <mxCell id="Zuvuwn8Xw8icW_HcA-dr-272" value="" style="endArrow=none;html=1;rounded=0;entryX=0.25;entryY=0;entryDx=0;entryDy=0;" edge="1" parent="1" target="Zuvuwn8Xw8icW_HcA-dr-7">
          <mxGeometry relative="1" as="geometry">
            <mxPoint x="700" y="360" as="sourcePoint" />
            <mxPoint x="860" y="360" as="targetPoint" />
          </mxGeometry>
        </mxCell>
        <mxCell id="Zuvuwn8Xw8icW_HcA-dr-274" value="" style="endArrow=none;html=1;rounded=0;exitX=0.75;exitY=0;exitDx=0;exitDy=0;entryX=0;entryY=1;entryDx=0;entryDy=0;" edge="1" parent="1" source="Zuvuwn8Xw8icW_HcA-dr-7" target="Zuvuwn8Xw8icW_HcA-dr-271">
          <mxGeometry relative="1" as="geometry">
            <mxPoint x="640" y="380" as="sourcePoint" />
            <mxPoint x="800" y="380" as="targetPoint" />
          </mxGeometry>
        </mxCell>
        <mxCell id="Zuvuwn8Xw8icW_HcA-dr-275" value="DATA_SNAPSHOT" style="ellipse;whiteSpace=wrap;html=1;align=center;" vertex="1" parent="1">
          <mxGeometry x="550" y="370" width="120" height="30" as="geometry" />
        </mxCell>
        <mxCell id="Zuvuwn8Xw8icW_HcA-dr-276" value="GENERATED_DATE" style="ellipse;whiteSpace=wrap;html=1;align=center;" vertex="1" parent="1">
          <mxGeometry x="540" y="420" width="110" height="30" as="geometry" />
        </mxCell>
        <mxCell id="Zuvuwn8Xw8icW_HcA-dr-277" value="" style="endArrow=none;html=1;rounded=0;entryX=0;entryY=0;entryDx=0;entryDy=0;exitX=1;exitY=1;exitDx=0;exitDy=0;" edge="1" parent="1" source="Zuvuwn8Xw8icW_HcA-dr-275" target="Zuvuwn8Xw8icW_HcA-dr-7">
          <mxGeometry relative="1" as="geometry">
            <mxPoint x="640" y="390" as="sourcePoint" />
            <mxPoint x="800" y="390" as="targetPoint" />
          </mxGeometry>
        </mxCell>
        <mxCell id="Zuvuwn8Xw8icW_HcA-dr-278" value="" style="endArrow=none;html=1;rounded=0;entryX=0;entryY=0.75;entryDx=0;entryDy=0;" edge="1" parent="1" target="Zuvuwn8Xw8icW_HcA-dr-7">
          <mxGeometry relative="1" as="geometry">
            <mxPoint x="650" y="434" as="sourcePoint" />
            <mxPoint x="815" y="434.33" as="targetPoint" />
          </mxGeometry>
        </mxCell>
        <mxCell id="Zuvuwn8Xw8icW_HcA-dr-280" value="REPORT_ID" style="ellipse;whiteSpace=wrap;html=1;align=center;fontStyle=4;rotation=-45;" vertex="1" parent="1">
          <mxGeometry x="520" y="580" width="100" height="30" as="geometry" />
        </mxCell>
        <mxCell id="Zuvuwn8Xw8icW_HcA-dr-281" value="SUBMISSION_TYPE" style="ellipse;whiteSpace=wrap;html=1;align=center;rotation=-75;" vertex="1" parent="1">
          <mxGeometry x="715" y="640.5400000000001" width="125" height="25.54" as="geometry" />
        </mxCell>
        <mxCell id="Zuvuwn8Xw8icW_HcA-dr-282" value="TITLE" style="ellipse;whiteSpace=wrap;html=1;align=center;" vertex="1" parent="1">
          <mxGeometry x="680" y="555.54" width="50" height="20" as="geometry" />
        </mxCell>
        <mxCell id="Zuvuwn8Xw8icW_HcA-dr-283" value="&lt;span id=&quot;docs-internal-guid-0311358c-7fff-90d8-32bf-621b092f379d&quot;&gt;&lt;span style=&quot;font-family: &amp;quot;Times New Roman&amp;quot;, serif; color: rgb(0, 0, 0); background-color: transparent; font-variant-numeric: normal; font-variant-east-asian: normal; font-variant-alternates: normal; font-variant-position: normal; font-variant-emoji: normal; vertical-align: baseline; white-space-collapse: preserve;&quot;&gt;&lt;font style=&quot;font-size: 8px;&quot;&gt;Description&lt;/font&gt;&lt;/span&gt;&lt;/span&gt;" style="ellipse;whiteSpace=wrap;html=1;align=center;" vertex="1" parent="1">
          <mxGeometry x="580" y="677.77" width="50" height="22.23" as="geometry" />
        </mxCell>
        <mxCell id="Zuvuwn8Xw8icW_HcA-dr-285" value="&#xa;&lt;b id=&quot;docs-internal-guid-99bde403-7fff-80e4-d29b-bbf4b4ecb13b&quot; style=&quot;font-weight:normal;&quot;&gt;&lt;span style=&quot;font-size:13.999999999999998pt;font-family:&#39;Times New Roman&#39;,serif;color:#000000;background-color:transparent;font-weight:400;font-style:normal;font-variant:normal;text-decoration:none;vertical-align:baseline;white-space:pre;white-space:pre-wrap;&quot;&gt;Date_Submitted&lt;/span&gt;&lt;/b&gt;&#xa;&#xa;" style="ellipse;whiteSpace=wrap;html=1;align=center;rotation=30;" vertex="1" parent="1">
          <mxGeometry x="690" y="530.5400000000001" width="150" height="30" as="geometry" />
        </mxCell>
        <mxCell id="Zuvuwn8Xw8icW_HcA-dr-288" value="" style="endArrow=none;html=1;rounded=0;entryX=0;entryY=0;entryDx=0;entryDy=0;exitX=0.768;exitY=0.963;exitDx=0;exitDy=0;exitPerimeter=0;" edge="1" parent="1" source="Zuvuwn8Xw8icW_HcA-dr-280" target="Zuvuwn8Xw8icW_HcA-dr-10">
          <mxGeometry relative="1" as="geometry">
            <mxPoint x="605" y="584.21" as="sourcePoint" />
            <mxPoint x="650" y="600" as="targetPoint" />
          </mxGeometry>
        </mxCell>
        <mxCell id="Zuvuwn8Xw8icW_HcA-dr-289" value="" style="endArrow=none;html=1;rounded=0;entryX=0.5;entryY=0;entryDx=0;entryDy=0;exitX=0.5;exitY=1;exitDx=0;exitDy=0;" edge="1" parent="1" source="Zuvuwn8Xw8icW_HcA-dr-282" target="Zuvuwn8Xw8icW_HcA-dr-10">
          <mxGeometry relative="1" as="geometry">
            <mxPoint x="640" y="585.54" as="sourcePoint" />
            <mxPoint x="800" y="585.54" as="targetPoint" />
          </mxGeometry>
        </mxCell>
        <mxCell id="Zuvuwn8Xw8icW_HcA-dr-290" value="" style="endArrow=none;html=1;rounded=0;entryX=1;entryY=0;entryDx=0;entryDy=0;exitX=0.5;exitY=1;exitDx=0;exitDy=0;" edge="1" parent="1" source="Zuvuwn8Xw8icW_HcA-dr-285" target="Zuvuwn8Xw8icW_HcA-dr-10">
          <mxGeometry relative="1" as="geometry">
            <mxPoint x="740" y="584.21" as="sourcePoint" />
            <mxPoint x="900" y="584.21" as="targetPoint" />
          </mxGeometry>
        </mxCell>
        <mxCell id="Zuvuwn8Xw8icW_HcA-dr-291" value="" style="endArrow=none;html=1;rounded=0;exitX=0;exitY=1;exitDx=0;exitDy=0;entryX=0.5;entryY=0;entryDx=0;entryDy=0;" edge="1" parent="1" source="Zuvuwn8Xw8icW_HcA-dr-10" target="Zuvuwn8Xw8icW_HcA-dr-283">
          <mxGeometry relative="1" as="geometry">
            <mxPoint x="520" y="679.21" as="sourcePoint" />
            <mxPoint x="680" y="679.21" as="targetPoint" />
          </mxGeometry>
        </mxCell>
        <mxCell id="Zuvuwn8Xw8icW_HcA-dr-292" value="" style="endArrow=none;html=1;rounded=0;entryX=0.367;entryY=0.031;entryDx=0;entryDy=0;entryPerimeter=0;" edge="1" parent="1" target="Zuvuwn8Xw8icW_HcA-dr-281">
          <mxGeometry relative="1" as="geometry">
            <mxPoint x="740" y="650" as="sourcePoint" />
            <mxPoint x="740" y="670" as="targetPoint" />
          </mxGeometry>
        </mxCell>
        <mxCell id="Zuvuwn8Xw8icW_HcA-dr-293" value="FEEDS" style="shape=rhombus;perimeter=rhombusPerimeter;whiteSpace=wrap;html=1;align=center;" vertex="1" parent="1">
          <mxGeometry x="640" y="470" width="60" height="40" as="geometry" />
        </mxCell>
        <mxCell id="Zuvuwn8Xw8icW_HcA-dr-296" value="" style="endArrow=none;html=1;rounded=0;entryX=0.25;entryY=0;entryDx=0;entryDy=0;" edge="1" parent="1" source="Zuvuwn8Xw8icW_HcA-dr-293" target="Zuvuwn8Xw8icW_HcA-dr-10">
          <mxGeometry relative="1" as="geometry">
            <mxPoint x="460" y="550" as="sourcePoint" />
            <mxPoint x="670" y="600" as="targetPoint" />
          </mxGeometry>
        </mxCell>
        <mxCell id="Zuvuwn8Xw8icW_HcA-dr-297" value="M" style="resizable=0;html=1;whiteSpace=wrap;align=left;verticalAlign=bottom;" connectable="0" vertex="1" parent="Zuvuwn8Xw8icW_HcA-dr-296">
          <mxGeometry x="-1" relative="1" as="geometry">
            <mxPoint x="19" y="-49" as="offset" />
          </mxGeometry>
        </mxCell>
        <mxCell id="Zuvuwn8Xw8icW_HcA-dr-298" value="N" style="resizable=0;html=1;whiteSpace=wrap;align=right;verticalAlign=bottom;" connectable="0" vertex="1" parent="Zuvuwn8Xw8icW_HcA-dr-296">
          <mxGeometry x="1" relative="1" as="geometry" />
        </mxCell>
        <mxCell id="Zuvuwn8Xw8icW_HcA-dr-299" value="" style="endArrow=none;html=1;rounded=0;exitX=0;exitY=1;exitDx=0;exitDy=0;entryX=0.5;entryY=0;entryDx=0;entryDy=0;" edge="1" parent="1" source="Zuvuwn8Xw8icW_HcA-dr-7" target="Zuvuwn8Xw8icW_HcA-dr-293">
          <mxGeometry relative="1" as="geometry">
            <mxPoint x="460" y="550" as="sourcePoint" />
            <mxPoint x="620" y="550" as="targetPoint" />
          </mxGeometry>
        </mxCell>
        <mxCell id="Zuvuwn8Xw8icW_HcA-dr-300" value="" style="resizable=0;html=1;whiteSpace=wrap;align=right;verticalAlign=bottom;" connectable="0" vertex="1" parent="Zuvuwn8Xw8icW_HcA-dr-299">
          <mxGeometry x="1" relative="1" as="geometry" />
        </mxCell>
        <mxCell id="Zuvuwn8Xw8icW_HcA-dr-301" value="VERIFIES" style="shape=rhombus;perimeter=rhombusPerimeter;whiteSpace=wrap;html=1;align=center;" vertex="1" parent="1">
          <mxGeometry x="450" y="640.54" width="80" height="40" as="geometry" />
        </mxCell>
        <mxCell id="Zuvuwn8Xw8icW_HcA-dr-302" value="" style="endArrow=none;html=1;rounded=0;exitX=1;exitY=1;exitDx=0;exitDy=0;" edge="1" parent="1" source="Zuvuwn8Xw8icW_HcA-dr-166">
          <mxGeometry relative="1" as="geometry">
            <mxPoint x="290" y="666" as="sourcePoint" />
            <mxPoint x="455" y="660" as="targetPoint" />
          </mxGeometry>
        </mxCell>
        <mxCell id="Zuvuwn8Xw8icW_HcA-dr-303" value="M" style="resizable=0;html=1;whiteSpace=wrap;align=left;verticalAlign=bottom;" connectable="0" vertex="1" parent="Zuvuwn8Xw8icW_HcA-dr-302">
          <mxGeometry x="-1" relative="1" as="geometry">
            <mxPoint x="120" y="-6" as="offset" />
          </mxGeometry>
        </mxCell>
        <mxCell id="Zuvuwn8Xw8icW_HcA-dr-305" value="" style="endArrow=none;html=1;rounded=0;exitX=0;exitY=0.5;exitDx=0;exitDy=0;entryX=1;entryY=0.5;entryDx=0;entryDy=0;" edge="1" parent="1" source="Zuvuwn8Xw8icW_HcA-dr-10" target="Zuvuwn8Xw8icW_HcA-dr-301">
          <mxGeometry relative="1" as="geometry">
            <mxPoint x="650" y="632.54" as="sourcePoint" />
            <mxPoint x="530" y="655.54" as="targetPoint" />
          </mxGeometry>
        </mxCell>
        <mxCell id="Zuvuwn8Xw8icW_HcA-dr-307" value="N" style="resizable=0;html=1;whiteSpace=wrap;align=right;verticalAlign=bottom;" connectable="0" vertex="1" parent="Zuvuwn8Xw8icW_HcA-dr-305">
          <mxGeometry x="1" relative="1" as="geometry">
            <mxPoint x="40" y="-13" as="offset" />
          </mxGeometry>
        </mxCell>
        <mxCell id="Zuvuwn8Xw8icW_HcA-dr-308" value="FOLLOW" style="shape=rhombus;perimeter=rhombusPerimeter;whiteSpace=wrap;html=1;align=center;" vertex="1" parent="1">
          <mxGeometry x="655" y="680.54" width="90" height="40" as="geometry" />
        </mxCell>
        <mxCell id="Zuvuwn8Xw8icW_HcA-dr-309" value="" style="shape=link;html=1;rounded=0;exitX=0;exitY=0.5;exitDx=0;exitDy=0;entryX=0.925;entryY=1.011;entryDx=0;entryDy=0;entryPerimeter=0;" edge="1" parent="1" source="Zuvuwn8Xw8icW_HcA-dr-308">
          <mxGeometry relative="1" as="geometry">
            <mxPoint x="460" y="660" as="sourcePoint" />
            <mxPoint x="665.3075476254398" y="648.9817721527788" as="targetPoint" />
          </mxGeometry>
        </mxCell>
        <mxCell id="Zuvuwn8Xw8icW_HcA-dr-310" value="1" style="resizable=0;html=1;whiteSpace=wrap;align=right;verticalAlign=bottom;" connectable="0" vertex="1" parent="Zuvuwn8Xw8icW_HcA-dr-309">
          <mxGeometry x="1" relative="1" as="geometry">
            <mxPoint x="20" y="25" as="offset" />
          </mxGeometry>
        </mxCell>
        <mxCell id="Zuvuwn8Xw8icW_HcA-dr-313" value="" style="shape=link;html=1;rounded=0;exitX=1;exitY=0.5;exitDx=0;exitDy=0;" edge="1" parent="1" source="Zuvuwn8Xw8icW_HcA-dr-308">
          <mxGeometry relative="1" as="geometry">
            <mxPoint x="750" y="700" as="sourcePoint" />
            <mxPoint x="710" y="650" as="targetPoint" />
          </mxGeometry>
        </mxCell>
        <mxCell id="Zuvuwn8Xw8icW_HcA-dr-314" value="N" style="resizable=0;html=1;whiteSpace=wrap;align=right;verticalAlign=bottom;" connectable="0" vertex="1" parent="Zuvuwn8Xw8icW_HcA-dr-313">
          <mxGeometry x="1" relative="1" as="geometry">
            <mxPoint y="25" as="offset" />
          </mxGeometry>
        </mxCell>
        <mxCell id="Zuvuwn8Xw8icW_HcA-dr-321" value="SUBMIT" style="shape=rhombus;perimeter=rhombusPerimeter;whiteSpace=wrap;html=1;align=center;" vertex="1" parent="1">
          <mxGeometry x="376.95" y="430" width="120" height="29.46" as="geometry" />
        </mxCell>
        <mxCell id="Zuvuwn8Xw8icW_HcA-dr-327" value="" style="endArrow=none;html=1;rounded=0;exitX=0.61;exitY=0;exitDx=0;exitDy=0;exitPerimeter=0;entryX=0;entryY=0.5;entryDx=0;entryDy=0;" edge="1" parent="1" source="Zuvuwn8Xw8icW_HcA-dr-166" target="Zuvuwn8Xw8icW_HcA-dr-321">
          <mxGeometry relative="1" as="geometry">
            <mxPoint x="360" y="500" as="sourcePoint" />
            <mxPoint x="520" y="500" as="targetPoint" />
          </mxGeometry>
        </mxCell>
        <mxCell id="Zuvuwn8Xw8icW_HcA-dr-328" value="1" style="resizable=0;html=1;whiteSpace=wrap;align=right;verticalAlign=bottom;" connectable="0" vertex="1" parent="Zuvuwn8Xw8icW_HcA-dr-327">
          <mxGeometry x="1" relative="1" as="geometry" />
        </mxCell>
        <mxCell id="Zuvuwn8Xw8icW_HcA-dr-329" value="" style="endArrow=none;html=1;rounded=0;exitX=1;exitY=0.5;exitDx=0;exitDy=0;entryX=0.116;entryY=-0.037;entryDx=0;entryDy=0;entryPerimeter=0;" edge="1" parent="1" source="Zuvuwn8Xw8icW_HcA-dr-321" target="Zuvuwn8Xw8icW_HcA-dr-10">
          <mxGeometry relative="1" as="geometry">
            <mxPoint x="466.95" y="480" as="sourcePoint" />
            <mxPoint x="626.95" y="480" as="targetPoint" />
          </mxGeometry>
        </mxCell>
        <mxCell id="Zuvuwn8Xw8icW_HcA-dr-330" value="N" style="resizable=0;html=1;whiteSpace=wrap;align=right;verticalAlign=bottom;" connectable="0" vertex="1" parent="Zuvuwn8Xw8icW_HcA-dr-329">
          <mxGeometry x="1" relative="1" as="geometry">
            <mxPoint x="-58" y="-67" as="offset" />
          </mxGeometry>
        </mxCell>
        <mxCell id="Zuvuwn8Xw8icW_HcA-dr-345" value="" style="endArrow=none;html=1;rounded=0;dashed=1;dashPattern=1 2;exitX=0;exitY=0.5;exitDx=0;exitDy=0;" edge="1" parent="1" source="Zuvuwn8Xw8icW_HcA-dr-350">
          <mxGeometry relative="1" as="geometry">
            <mxPoint x="440.7624999999998" y="810.1619589299933" as="sourcePoint" />
            <mxPoint x="450" y="940" as="targetPoint" />
          </mxGeometry>
        </mxCell>
        <mxCell id="Zuvuwn8Xw8icW_HcA-dr-347" value="" style="endArrow=none;html=1;rounded=0;dashed=1;dashPattern=1 2;entryX=1;entryY=0.5;entryDx=0;entryDy=0;" edge="1" parent="1" target="Zuvuwn8Xw8icW_HcA-dr-350">
          <mxGeometry relative="1" as="geometry">
            <mxPoint x="650" y="640" as="sourcePoint" />
            <mxPoint x="492.2874999999999" y="720.9180410700067" as="targetPoint" />
          </mxGeometry>
        </mxCell>
        <mxCell id="Zuvuwn8Xw8icW_HcA-dr-348" value="N" style="resizable=0;html=1;whiteSpace=wrap;align=right;verticalAlign=bottom;" connectable="0" vertex="1" parent="Zuvuwn8Xw8icW_HcA-dr-347">
          <mxGeometry x="1" relative="1" as="geometry">
            <mxPoint x="37" y="-20" as="offset" />
          </mxGeometry>
        </mxCell>
        <mxCell id="Zuvuwn8Xw8icW_HcA-dr-349" value="EVIDENCE" style="whiteSpace=wrap;html=1;align=center;" vertex="1" parent="1">
          <mxGeometry x="560" y="785.54" width="110" height="34.46" as="geometry" />
        </mxCell>
        <mxCell id="Zuvuwn8Xw8icW_HcA-dr-350" value="PROTECTION" style="shape=rhombus;double=1;perimeter=rhombusPerimeter;whiteSpace=wrap;html=1;align=center;rotation=-45;" vertex="1" parent="1">
          <mxGeometry x="410" y="745.54" width="120" height="34.46" as="geometry" />
        </mxCell>
        <mxCell id="Zuvuwn8Xw8icW_HcA-dr-353" value="TYPE" style="ellipse;whiteSpace=wrap;html=1;align=center;" vertex="1" parent="1">
          <mxGeometry x="555" y="860" width="75" height="20" as="geometry" />
        </mxCell>
        <mxCell id="Zuvuwn8Xw8icW_HcA-dr-354" value="ID" style="ellipse;whiteSpace=wrap;html=1;align=center;fontStyle=4;" vertex="1" parent="1">
          <mxGeometry x="496.95" y="792.77" width="40" height="20" as="geometry" />
        </mxCell>
        <mxCell id="Zuvuwn8Xw8icW_HcA-dr-356" value="FILE_LINK" style="ellipse;whiteSpace=wrap;html=1;align=center;rotation=-45;" vertex="1" parent="1">
          <mxGeometry x="630" y="840" width="60" height="20" as="geometry" />
        </mxCell>
        <mxCell id="Zuvuwn8Xw8icW_HcA-dr-358" value="" style="endArrow=none;html=1;rounded=0;entryX=0.5;entryY=0;entryDx=0;entryDy=0;exitX=0.25;exitY=1;exitDx=0;exitDy=0;" edge="1" parent="1" source="Zuvuwn8Xw8icW_HcA-dr-349" target="Zuvuwn8Xw8icW_HcA-dr-353">
          <mxGeometry relative="1" as="geometry">
            <mxPoint x="510" y="839.41" as="sourcePoint" />
            <mxPoint x="670" y="839.41" as="targetPoint" />
          </mxGeometry>
        </mxCell>
        <mxCell id="Zuvuwn8Xw8icW_HcA-dr-360" value="" style="endArrow=none;html=1;rounded=0;entryX=1;entryY=0;entryDx=0;entryDy=0;exitX=0;exitY=0.75;exitDx=0;exitDy=0;" edge="1" parent="1" source="Zuvuwn8Xw8icW_HcA-dr-349" target="Zuvuwn8Xw8icW_HcA-dr-354">
          <mxGeometry relative="1" as="geometry">
            <mxPoint x="480" y="810" as="sourcePoint" />
            <mxPoint x="640" y="810" as="targetPoint" />
          </mxGeometry>
        </mxCell>
        <mxCell id="Zuvuwn8Xw8icW_HcA-dr-361" value="" style="endArrow=none;html=1;rounded=0;exitX=0.5;exitY=1;exitDx=0;exitDy=0;" edge="1" parent="1" source="Zuvuwn8Xw8icW_HcA-dr-349">
          <mxGeometry relative="1" as="geometry">
            <mxPoint x="710" y="830" as="sourcePoint" />
            <mxPoint x="650" y="850" as="targetPoint" />
          </mxGeometry>
        </mxCell>
        <mxCell id="Zuvuwn8Xw8icW_HcA-dr-363" value="WATERMARKED_COPY" style="ellipse;whiteSpace=wrap;html=1;align=center;" vertex="1" parent="1">
          <mxGeometry x="437.5" y="830" width="140" height="30" as="geometry" />
        </mxCell>
        <mxCell id="Zuvuwn8Xw8icW_HcA-dr-365" value="" style="endArrow=none;html=1;rounded=0;entryX=0.614;entryY=-0.02;entryDx=0;entryDy=0;entryPerimeter=0;exitX=0;exitY=1;exitDx=0;exitDy=0;" edge="1" parent="1" source="Zuvuwn8Xw8icW_HcA-dr-349" target="Zuvuwn8Xw8icW_HcA-dr-363">
          <mxGeometry relative="1" as="geometry">
            <mxPoint x="490" y="774.95" as="sourcePoint" />
            <mxPoint x="650" y="774.95" as="targetPoint" />
          </mxGeometry>
        </mxCell>
        <mxCell id="Zuvuwn8Xw8icW_HcA-dr-366" value="GPS" style="ellipse;whiteSpace=wrap;html=1;align=center;" vertex="1" parent="1">
          <mxGeometry x="692.5" y="800" width="60" height="20" as="geometry" />
        </mxCell>
        <mxCell id="Zuvuwn8Xw8icW_HcA-dr-367" value="" style="endArrow=none;html=1;rounded=0;entryX=0;entryY=0.5;entryDx=0;entryDy=0;" edge="1" parent="1" target="Zuvuwn8Xw8icW_HcA-dr-366">
          <mxGeometry relative="1" as="geometry">
            <mxPoint x="670" y="810" as="sourcePoint" />
            <mxPoint x="825" y="802.1800000000001" as="targetPoint" />
          </mxGeometry>
        </mxCell>
        <mxCell id="Zuvuwn8Xw8icW_HcA-dr-369" value="&lt;span style=&quot;font-size: 10px;&quot; id=&quot;docs-internal-guid-86d4b821-7fff-750b-b26a-8e33e7958379&quot;&gt;&lt;span style=&quot;font-family: &amp;quot;Times New Roman&amp;quot;, serif; color: rgb(0, 0, 0); background-color: transparent; font-variant-numeric: normal; font-variant-east-asian: normal; font-variant-alternates: normal; font-variant-position: normal; font-variant-emoji: normal; vertical-align: baseline; white-space-collapse: preserve;&quot;&gt;Latitude&lt;/span&gt;&lt;/span&gt;" style="ellipse;whiteSpace=wrap;html=1;align=center;" vertex="1" parent="1">
          <mxGeometry x="692.5" y="840" width="55" height="25" as="geometry" />
        </mxCell>
        <mxCell id="Zuvuwn8Xw8icW_HcA-dr-370" value="&lt;span id=&quot;docs-internal-guid-9b105274-7fff-cd24-c259-30cb67a3cecf&quot;&gt;&lt;span style=&quot;font-family: &amp;quot;Times New Roman&amp;quot;, serif; color: rgb(0, 0, 0); background-color: transparent; font-variant-numeric: normal; font-variant-east-asian: normal; font-variant-alternates: normal; font-variant-position: normal; font-variant-emoji: normal; vertical-align: baseline; white-space-collapse: preserve;&quot;&gt;&lt;font style=&quot;font-size: 10px;&quot;&gt;Longitude&lt;/font&gt;&lt;/span&gt;&lt;/span&gt;" style="ellipse;whiteSpace=wrap;html=1;align=center;rotation=-15;" vertex="1" parent="1">
          <mxGeometry x="750" y="820" width="57.5" height="20" as="geometry" />
        </mxCell>
        <mxCell id="Zuvuwn8Xw8icW_HcA-dr-371" value="" style="endArrow=none;html=1;rounded=0;exitX=0;exitY=0;exitDx=0;exitDy=0;entryX=0.5;entryY=1;entryDx=0;entryDy=0;" edge="1" parent="1" source="Zuvuwn8Xw8icW_HcA-dr-369" target="Zuvuwn8Xw8icW_HcA-dr-366">
          <mxGeometry relative="1" as="geometry">
            <mxPoint x="470" y="730" as="sourcePoint" />
            <mxPoint x="630" y="730" as="targetPoint" />
          </mxGeometry>
        </mxCell>
        <mxCell id="Zuvuwn8Xw8icW_HcA-dr-373" value="" style="endArrow=none;html=1;rounded=0;exitX=1;exitY=1;exitDx=0;exitDy=0;" edge="1" parent="1" source="Zuvuwn8Xw8icW_HcA-dr-366">
          <mxGeometry relative="1" as="geometry">
            <mxPoint x="665" y="760" as="sourcePoint" />
            <mxPoint x="770" y="820" as="targetPoint" />
          </mxGeometry>
        </mxCell>
        <mxCell id="Zuvuwn8Xw8icW_HcA-dr-374" value="HAS" style="shape=rhombus;perimeter=rhombusPerimeter;whiteSpace=wrap;html=1;align=center;rotation=-60;" vertex="1" parent="1">
          <mxGeometry x="596.95" y="721.08" width="51.46" height="24.46" as="geometry" />
        </mxCell>
        <mxCell id="Zuvuwn8Xw8icW_HcA-dr-378" value="" style="endArrow=none;html=1;rounded=0;entryX=0.942;entryY=0.82;entryDx=0;entryDy=0;entryPerimeter=0;exitX=1;exitY=0.5;exitDx=0;exitDy=0;" edge="1" parent="1" source="Zuvuwn8Xw8icW_HcA-dr-374">
          <mxGeometry relative="1" as="geometry">
            <mxPoint x="550" y="700" as="sourcePoint" />
            <mxPoint x="659.9927888291406" y="646.6777020719959" as="targetPoint" />
          </mxGeometry>
        </mxCell>
        <mxCell id="Zuvuwn8Xw8icW_HcA-dr-379" value="1" style="resizable=0;html=1;whiteSpace=wrap;align=right;verticalAlign=bottom;" connectable="0" vertex="1" parent="Zuvuwn8Xw8icW_HcA-dr-378">
          <mxGeometry x="1" relative="1" as="geometry">
            <mxPoint x="-12" y="29" as="offset" />
          </mxGeometry>
        </mxCell>
        <mxCell id="Zuvuwn8Xw8icW_HcA-dr-380" value="&lt;span style=&quot;font-size: 6px;&quot;&gt;REPORT1&lt;/span&gt;" style="text;html=1;align=center;verticalAlign=middle;resizable=0;points=[];autosize=1;strokeColor=none;fillColor=none;rotation=-80;" vertex="1" parent="1">
          <mxGeometry x="645" y="658" width="50" height="30" as="geometry" />
        </mxCell>
        <mxCell id="Zuvuwn8Xw8icW_HcA-dr-381" value="" style="endArrow=none;html=1;rounded=0;exitX=0;exitY=0;exitDx=0;exitDy=0;entryX=0;entryY=0.5;entryDx=0;entryDy=0;" edge="1" parent="1" source="Zuvuwn8Xw8icW_HcA-dr-349" target="Zuvuwn8Xw8icW_HcA-dr-374">
          <mxGeometry relative="1" as="geometry">
            <mxPoint x="550" y="700" as="sourcePoint" />
            <mxPoint x="710" y="700" as="targetPoint" />
          </mxGeometry>
        </mxCell>
        <mxCell id="Zuvuwn8Xw8icW_HcA-dr-382" value="N" style="resizable=0;html=1;whiteSpace=wrap;align=right;verticalAlign=bottom;" connectable="0" vertex="1" parent="Zuvuwn8Xw8icW_HcA-dr-381">
          <mxGeometry x="1" relative="1" as="geometry">
            <mxPoint x="-13" y="7" as="offset" />
          </mxGeometry>
        </mxCell>
        <mxCell id="Zuvuwn8Xw8icW_HcA-dr-383" value="LEAD" style="shape=rhombus;perimeter=rhombusPerimeter;whiteSpace=wrap;html=1;align=center;rotation=30;" vertex="1" parent="1">
          <mxGeometry x="370" y="315" width="120" height="45" as="geometry" />
        </mxCell>
        <mxCell id="Zuvuwn8Xw8icW_HcA-dr-386" value="" style="endArrow=none;html=1;rounded=0;entryX=1;entryY=0.5;entryDx=0;entryDy=0;" edge="1" parent="1" target="Zuvuwn8Xw8icW_HcA-dr-383">
          <mxGeometry relative="1" as="geometry">
            <mxPoint x="670" y="608" as="sourcePoint" />
            <mxPoint x="470" y="490" as="targetPoint" />
          </mxGeometry>
        </mxCell>
        <mxCell id="Zuvuwn8Xw8icW_HcA-dr-387" value="1" style="resizable=0;html=1;whiteSpace=wrap;align=right;verticalAlign=bottom;" connectable="0" vertex="1" parent="Zuvuwn8Xw8icW_HcA-dr-386">
          <mxGeometry x="1" relative="1" as="geometry">
            <mxPoint x="25" y="22" as="offset" />
          </mxGeometry>
        </mxCell>
        <mxCell id="Zuvuwn8Xw8icW_HcA-dr-388" value="" style="endArrow=none;html=1;rounded=0;entryX=0;entryY=0.5;entryDx=0;entryDy=0;" edge="1" parent="1" target="Zuvuwn8Xw8icW_HcA-dr-383">
          <mxGeometry relative="1" as="geometry">
            <mxPoint x="180" y="280" as="sourcePoint" />
            <mxPoint x="385.67" y="300" as="targetPoint" />
          </mxGeometry>
        </mxCell>
        <mxCell id="Zuvuwn8Xw8icW_HcA-dr-389" value="N" style="resizable=0;html=1;whiteSpace=wrap;align=right;verticalAlign=bottom;" connectable="0" vertex="1" parent="Zuvuwn8Xw8icW_HcA-dr-388">
          <mxGeometry x="1" relative="1" as="geometry" />
        </mxCell>
        <mxCell id="Zuvuwn8Xw8icW_HcA-dr-390" value="&lt;span style=&quot;font-size: 6px; text-wrap-mode: nowrap;&quot;&gt;CATEGORY&lt;/span&gt;" style="whiteSpace=wrap;html=1;align=center;" vertex="1" parent="1">
          <mxGeometry x="741.25" y="760" width="57.5" height="20" as="geometry" />
        </mxCell>
        <mxCell id="Zuvuwn8Xw8icW_HcA-dr-392" value="&lt;span style=&quot;font-size: 6px;&quot;&gt;REPORT2&lt;/span&gt;" style="text;html=1;align=center;verticalAlign=middle;resizable=0;points=[];autosize=1;strokeColor=none;fillColor=none;rotation=60;" vertex="1" parent="1">
          <mxGeometry x="697.5" y="658" width="50" height="30" as="geometry" />
        </mxCell>
        <mxCell id="Zuvuwn8Xw8icW_HcA-dr-393" value="NAME" style="ellipse;whiteSpace=wrap;html=1;align=center;rotation=30;" vertex="1" parent="1">
          <mxGeometry x="678.75" y="765.54" width="62.5" height="20" as="geometry" />
        </mxCell>
        <mxCell id="Zuvuwn8Xw8icW_HcA-dr-394" value="ID" style="ellipse;whiteSpace=wrap;html=1;align=center;fontStyle=4;" vertex="1" parent="1">
          <mxGeometry x="756.25" y="782.77" width="30" height="17.23" as="geometry" />
        </mxCell>
        <mxCell id="Zuvuwn8Xw8icW_HcA-dr-398" value="" style="endArrow=none;html=1;rounded=0;exitX=0.719;exitY=0.002;exitDx=0;exitDy=0;exitPerimeter=0;entryX=0;entryY=1;entryDx=0;entryDy=0;" edge="1" parent="1" source="Zuvuwn8Xw8icW_HcA-dr-393" target="Zuvuwn8Xw8icW_HcA-dr-390">
          <mxGeometry relative="1" as="geometry">
            <mxPoint x="620" y="759.57" as="sourcePoint" />
            <mxPoint x="740" y="769" as="targetPoint" />
          </mxGeometry>
        </mxCell>
        <mxCell id="Zuvuwn8Xw8icW_HcA-dr-399" value="" style="endArrow=none;html=1;rounded=0;exitX=0.25;exitY=1;exitDx=0;exitDy=0;entryX=0;entryY=0;entryDx=0;entryDy=0;" edge="1" parent="1" source="Zuvuwn8Xw8icW_HcA-dr-390" target="Zuvuwn8Xw8icW_HcA-dr-394">
          <mxGeometry relative="1" as="geometry">
            <mxPoint x="715" y="762.34" as="sourcePoint" />
            <mxPoint x="770" y="780" as="targetPoint" />
          </mxGeometry>
        </mxCell>
        <mxCell id="Zuvuwn8Xw8icW_HcA-dr-404" value="&lt;font style=&quot;font-size: 8px;&quot;&gt;BELONG&lt;/font&gt;" style="shape=rhombus;perimeter=rhombusPerimeter;whiteSpace=wrap;html=1;align=center;rotation=-75;" vertex="1" parent="1">
          <mxGeometry x="726.4300000000001" y="713.3100000000001" width="43.57" height="26.69" as="geometry" />
        </mxCell>
        <mxCell id="Zuvuwn8Xw8icW_HcA-dr-405" value="" style="endArrow=none;html=1;rounded=0;exitX=0;exitY=0.5;exitDx=0;exitDy=0;entryX=0;entryY=0;entryDx=0;entryDy=0;" edge="1" parent="1" source="Zuvuwn8Xw8icW_HcA-dr-404" target="Zuvuwn8Xw8icW_HcA-dr-390">
          <mxGeometry relative="1" as="geometry">
            <mxPoint x="550" y="770" as="sourcePoint" />
            <mxPoint x="710" y="770" as="targetPoint" />
          </mxGeometry>
        </mxCell>
        <mxCell id="Zuvuwn8Xw8icW_HcA-dr-406" value="1" style="resizable=0;html=1;whiteSpace=wrap;align=right;verticalAlign=bottom;" connectable="0" vertex="1" parent="Zuvuwn8Xw8icW_HcA-dr-405">
          <mxGeometry x="1" relative="1" as="geometry" />
        </mxCell>
        <mxCell id="Zuvuwn8Xw8icW_HcA-dr-410" value="" style="endArrow=none;html=1;rounded=0;exitX=1;exitY=0.5;exitDx=0;exitDy=0;entryX=0.007;entryY=0.182;entryDx=0;entryDy=0;entryPerimeter=0;" edge="1" parent="1" source="Zuvuwn8Xw8icW_HcA-dr-404" target="Zuvuwn8Xw8icW_HcA-dr-392">
          <mxGeometry relative="1" as="geometry">
            <mxPoint x="550" y="730" as="sourcePoint" />
            <mxPoint x="720" y="650" as="targetPoint" />
          </mxGeometry>
        </mxCell>
        <mxCell id="Zuvuwn8Xw8icW_HcA-dr-411" value="N" style="resizable=0;html=1;whiteSpace=wrap;align=right;verticalAlign=bottom;" connectable="0" vertex="1" parent="Zuvuwn8Xw8icW_HcA-dr-410">
          <mxGeometry x="1" relative="1" as="geometry">
            <mxPoint x="30" y="31" as="offset" />
          </mxGeometry>
        </mxCell>
        <mxCell id="Zuvuwn8Xw8icW_HcA-dr-412" value="IMPACTSTORY" style="whiteSpace=wrap;html=1;align=center;" vertex="1" parent="1">
          <mxGeometry x="276.95" y="812.77" width="100" height="27.23" as="geometry" />
        </mxCell>
        <mxCell id="Zuvuwn8Xw8icW_HcA-dr-425" value="&lt;span id=&quot;docs-internal-guid-f4b1cd37-7fff-379b-ed00-b5f6cf4c6990&quot;&gt;&lt;span style=&quot;font-size: 14pt; font-family: &amp;quot;Times New Roman&amp;quot;, serif; color: rgb(0, 0, 0); background-color: transparent; font-weight: 700; font-variant-numeric: normal; font-variant-east-asian: normal; font-variant-alternates: normal; font-variant-position: normal; font-variant-emoji: normal; vertical-align: baseline; white-space-collapse: preserve;&quot;&gt;WhistleblowerProtection&lt;/span&gt;&lt;/span&gt;" style="whiteSpace=wrap;html=1;align=center;" vertex="1" parent="1">
          <mxGeometry x="452.6313972081441" y="942.6978192116164" width="200" height="40" as="geometry" />
        </mxCell>
        <mxCell id="Zuvuwn8Xw8icW_HcA-dr-426" value="&lt;span id=&quot;docs-internal-guid-df91c167-7fff-3b1f-9740-37c0d775b448&quot;&gt;&lt;span style=&quot;font-size: 14pt; font-family: &amp;quot;Times New Roman&amp;quot;, serif; color: rgb(0, 0, 0); background-color: transparent; font-variant-numeric: normal; font-variant-east-asian: normal; font-variant-alternates: normal; font-variant-position: normal; font-variant-emoji: normal; vertical-align: baseline; white-space-collapse: preserve;&quot;&gt;Encryption_Techniques&lt;/span&gt;&lt;/span&gt;" style="ellipse;whiteSpace=wrap;html=1;align=center;" vertex="1" parent="1">
          <mxGeometry x="462.6313972081441" y="1002.6978192116164" width="200" height="40" as="geometry" />
        </mxCell>
        <mxCell id="Zuvuwn8Xw8icW_HcA-dr-427" value="" style="endArrow=none;html=1;rounded=0;entryX=0.398;entryY=0.001;entryDx=0;entryDy=0;entryPerimeter=0;exitX=0.397;exitY=1.076;exitDx=0;exitDy=0;exitPerimeter=0;" edge="1" parent="1" source="Zuvuwn8Xw8icW_HcA-dr-425" target="Zuvuwn8Xw8icW_HcA-dr-426">
          <mxGeometry relative="1" as="geometry">
            <mxPoint x="532.6313972081441" y="972.6978192116164" as="sourcePoint" />
            <mxPoint x="702.6313972081441" y="982.6978192116164" as="targetPoint" />
          </mxGeometry>
        </mxCell>
        <mxCell id="Zuvuwn8Xw8icW_HcA-dr-428" value="AES" style="ellipse;whiteSpace=wrap;html=1;align=center;rotation=15;" vertex="1" parent="1">
          <mxGeometry x="482.6313972081441" y="1062.6978192116164" width="67" height="20" as="geometry" />
        </mxCell>
        <mxCell id="Zuvuwn8Xw8icW_HcA-dr-429" value="RSA" style="ellipse;whiteSpace=wrap;html=1;align=center;rotation=-15;" vertex="1" parent="1">
          <mxGeometry x="562.6313972081441" y="1062.6978192116164" width="70" height="20" as="geometry" />
        </mxCell>
        <mxCell id="Zuvuwn8Xw8icW_HcA-dr-430" value="" style="endArrow=none;html=1;rounded=0;exitX=0.5;exitY=0;exitDx=0;exitDy=0;entryX=0.401;entryY=1.039;entryDx=0;entryDy=0;entryPerimeter=0;" edge="1" parent="1" source="Zuvuwn8Xw8icW_HcA-dr-428" target="Zuvuwn8Xw8icW_HcA-dr-426">
          <mxGeometry relative="1" as="geometry">
            <mxPoint x="552.6313972081441" y="962.6978192116164" as="sourcePoint" />
            <mxPoint x="712.6313972081441" y="962.6978192116164" as="targetPoint" />
          </mxGeometry>
        </mxCell>
        <mxCell id="Zuvuwn8Xw8icW_HcA-dr-431" value="" style="endArrow=none;html=1;rounded=0;entryX=0.5;entryY=0;entryDx=0;entryDy=0;exitX=0.527;exitY=1.065;exitDx=0;exitDy=0;exitPerimeter=0;" edge="1" parent="1" source="Zuvuwn8Xw8icW_HcA-dr-426" target="Zuvuwn8Xw8icW_HcA-dr-429">
          <mxGeometry relative="1" as="geometry">
            <mxPoint x="552.6313972081441" y="962.6978192116164" as="sourcePoint" />
            <mxPoint x="712.6313972081441" y="962.6978192116164" as="targetPoint" />
          </mxGeometry>
        </mxCell>
        <mxCell id="Zuvuwn8Xw8icW_HcA-dr-432" value="&lt;font style=&quot;&quot; size=&quot;1&quot; face=&quot;Times New Roman, serif&quot;&gt;&lt;span style=&quot;white-space-collapse: preserve;&quot;&gt;PROTECTION_LEVEL&lt;/span&gt;&lt;/font&gt;" style="ellipse;whiteSpace=wrap;html=1;align=center;rotation=30;" vertex="1" parent="1">
          <mxGeometry x="362.6313972081441" y="992.6978192116164" width="110" height="40" as="geometry" />
        </mxCell>
        <mxCell id="Zuvuwn8Xw8icW_HcA-dr-433" value="" style="endArrow=none;html=1;rounded=0;entryX=0.125;entryY=1.013;entryDx=0;entryDy=0;entryPerimeter=0;" edge="1" parent="1" source="Zuvuwn8Xw8icW_HcA-dr-432" target="Zuvuwn8Xw8icW_HcA-dr-425">
          <mxGeometry relative="1" as="geometry">
            <mxPoint x="439.5813972081441" y="989.8178192116164" as="sourcePoint" />
            <mxPoint x="599.5813972081442" y="989.8178192116164" as="targetPoint" />
          </mxGeometry>
        </mxCell>
        <mxCell id="Zuvuwn8Xw8icW_HcA-dr-434" value="" style="endArrow=none;html=1;rounded=0;entryX=0.446;entryY=0.1;entryDx=0;entryDy=0;entryPerimeter=0;exitX=0.75;exitY=1;exitDx=0;exitDy=0;" edge="1" parent="1" source="Zuvuwn8Xw8icW_HcA-dr-425">
          <mxGeometry relative="1" as="geometry">
            <mxPoint x="552.6313972081441" y="962.6978192116164" as="sourcePoint" />
            <mxPoint x="687.4993120907518" y="982.7024873310393" as="targetPoint" />
          </mxGeometry>
        </mxCell>
        <mxCell id="Zuvuwn8Xw8icW_HcA-dr-435" value="1" style="resizable=0;html=1;whiteSpace=wrap;align=right;verticalAlign=bottom;" connectable="0" vertex="1" parent="1">
          <mxGeometry x="440.00432142986125" y="910" as="geometry" />
        </mxCell>
        <mxCell id="Zuvuwn8Xw8icW_HcA-dr-436" value="&lt;span style=&quot;border-bottom: 1px dotted&quot;&gt;PROTECTION_ID&lt;/span&gt;" style="ellipse;whiteSpace=wrap;html=1;align=center;rotation=-30;" vertex="1" parent="1">
          <mxGeometry x="652.6313972081441" y="970.1978192116164" width="105" height="30" as="geometry" />
        </mxCell>
        <mxCell id="Zuvuwn8Xw8icW_HcA-dr-437" value="TITLE" style="ellipse;whiteSpace=wrap;html=1;align=center;" vertex="1" parent="1">
          <mxGeometry x="215" y="840" width="50" height="25" as="geometry" />
        </mxCell>
        <mxCell id="Zuvuwn8Xw8icW_HcA-dr-438" value="ID" style="ellipse;whiteSpace=wrap;html=1;align=center;fontStyle=4;" vertex="1" parent="1">
          <mxGeometry x="356.95" y="860" width="40" height="20" as="geometry" />
        </mxCell>
        <mxCell id="Zuvuwn8Xw8icW_HcA-dr-439" value="DISCRIPTION" style="ellipse;whiteSpace=wrap;html=1;align=center;rotation=-15;" vertex="1" parent="1">
          <mxGeometry x="310" y="895" width="100" height="30" as="geometry" />
        </mxCell>
        <mxCell id="Zuvuwn8Xw8icW_HcA-dr-440" value="OUTCOME" style="ellipse;whiteSpace=wrap;html=1;align=center;" vertex="1" parent="1">
          <mxGeometry x="220" y="870" width="75" height="27.3" as="geometry" />
        </mxCell>
        <mxCell id="Zuvuwn8Xw8icW_HcA-dr-441" value="&lt;font style=&quot;font-size: 8px;&quot;&gt;PUBLISH_DATE&lt;/font&gt;" style="ellipse;whiteSpace=wrap;html=1;align=center;rotation=15;" vertex="1" parent="1">
          <mxGeometry x="235" y="910" width="65" height="25" as="geometry" />
        </mxCell>
        <mxCell id="Zuvuwn8Xw8icW_HcA-dr-442" value="" style="endArrow=none;html=1;rounded=0;exitX=0.75;exitY=1;exitDx=0;exitDy=0;entryX=0;entryY=0;entryDx=0;entryDy=0;" edge="1" parent="1" source="Zuvuwn8Xw8icW_HcA-dr-412" target="Zuvuwn8Xw8icW_HcA-dr-438">
          <mxGeometry relative="1" as="geometry">
            <mxPoint x="420" y="870" as="sourcePoint" />
            <mxPoint x="580" y="870" as="targetPoint" />
          </mxGeometry>
        </mxCell>
        <mxCell id="Zuvuwn8Xw8icW_HcA-dr-443" value="" style="endArrow=none;html=1;rounded=0;exitX=0.5;exitY=1;exitDx=0;exitDy=0;" edge="1" parent="1" source="Zuvuwn8Xw8icW_HcA-dr-412" target="Zuvuwn8Xw8icW_HcA-dr-439">
          <mxGeometry relative="1" as="geometry">
            <mxPoint x="420" y="870" as="sourcePoint" />
            <mxPoint x="580" y="870" as="targetPoint" />
          </mxGeometry>
        </mxCell>
        <mxCell id="Zuvuwn8Xw8icW_HcA-dr-444" value="" style="endArrow=none;html=1;rounded=0;exitX=0.729;exitY=0.066;exitDx=0;exitDy=0;exitPerimeter=0;" edge="1" parent="1" source="Zuvuwn8Xw8icW_HcA-dr-441">
          <mxGeometry relative="1" as="geometry">
            <mxPoint x="296.95" y="910" as="sourcePoint" />
            <mxPoint x="315" y="843" as="targetPoint" />
          </mxGeometry>
        </mxCell>
        <mxCell id="Zuvuwn8Xw8icW_HcA-dr-446" value="" style="endArrow=none;html=1;rounded=0;entryX=0.25;entryY=1;entryDx=0;entryDy=0;exitX=0.741;exitY=-0.018;exitDx=0;exitDy=0;exitPerimeter=0;" edge="1" parent="1" source="Zuvuwn8Xw8icW_HcA-dr-440" target="Zuvuwn8Xw8icW_HcA-dr-412">
          <mxGeometry relative="1" as="geometry">
            <mxPoint x="270" y="883.09" as="sourcePoint" />
            <mxPoint x="430" y="883.09" as="targetPoint" />
          </mxGeometry>
        </mxCell>
        <mxCell id="Zuvuwn8Xw8icW_HcA-dr-447" value="" style="endArrow=none;html=1;rounded=0;exitX=1;exitY=0.5;exitDx=0;exitDy=0;entryX=0;entryY=1;entryDx=0;entryDy=0;" edge="1" parent="1" source="Zuvuwn8Xw8icW_HcA-dr-437" target="Zuvuwn8Xw8icW_HcA-dr-412">
          <mxGeometry relative="1" as="geometry">
            <mxPoint x="360" y="900" as="sourcePoint" />
            <mxPoint x="520" y="900" as="targetPoint" />
          </mxGeometry>
        </mxCell>
        <mxCell id="Zuvuwn8Xw8icW_HcA-dr-448" value="&lt;font style=&quot;font-size: 8px;&quot;&gt;GENERATES&lt;/font&gt;" style="shape=rhombus;perimeter=rhombusPerimeter;whiteSpace=wrap;html=1;align=center;rotation=-45;" vertex="1" parent="1">
          <mxGeometry x="386.25" y="725.54" width="87.5" height="27.23" as="geometry" />
        </mxCell>
        <mxCell id="Zuvuwn8Xw8icW_HcA-dr-449" value="" style="endArrow=none;html=1;rounded=0;exitX=0.662;exitY=0.06;exitDx=0;exitDy=0;exitPerimeter=0;entryX=0;entryY=0.5;entryDx=0;entryDy=0;" edge="1" parent="1" source="Zuvuwn8Xw8icW_HcA-dr-412" target="Zuvuwn8Xw8icW_HcA-dr-448">
          <mxGeometry relative="1" as="geometry">
            <mxPoint x="420" y="840" as="sourcePoint" />
            <mxPoint x="580" y="840" as="targetPoint" />
          </mxGeometry>
        </mxCell>
        <mxCell id="Zuvuwn8Xw8icW_HcA-dr-450" value="N" style="resizable=0;html=1;whiteSpace=wrap;align=right;verticalAlign=bottom;" connectable="0" vertex="1" parent="Zuvuwn8Xw8icW_HcA-dr-449">
          <mxGeometry x="1" relative="1" as="geometry">
            <mxPoint x="-24" y="15" as="offset" />
          </mxGeometry>
        </mxCell>
        <mxCell id="Zuvuwn8Xw8icW_HcA-dr-451" value="" style="endArrow=none;html=1;rounded=0;exitX=1;exitY=0.5;exitDx=0;exitDy=0;" edge="1" parent="1" source="Zuvuwn8Xw8icW_HcA-dr-448">
          <mxGeometry relative="1" as="geometry">
            <mxPoint x="420" y="840" as="sourcePoint" />
            <mxPoint x="650" y="630" as="targetPoint" />
          </mxGeometry>
        </mxCell>
        <mxCell id="Zuvuwn8Xw8icW_HcA-dr-452" value="1" style="resizable=0;html=1;whiteSpace=wrap;align=right;verticalAlign=bottom;" connectable="0" vertex="1" parent="Zuvuwn8Xw8icW_HcA-dr-451">
          <mxGeometry x="1" relative="1" as="geometry">
            <mxPoint x="-113" y="51" as="offset" />
          </mxGeometry>
        </mxCell>
        <mxCell id="Zuvuwn8Xw8icW_HcA-dr-453" value="ALERT" style="whiteSpace=wrap;html=1;align=center;" vertex="1" parent="1">
          <mxGeometry x="130" y="835" width="55" height="15" as="geometry" />
        </mxCell>
        <mxCell id="Zuvuwn8Xw8icW_HcA-dr-454" value="&lt;font style=&quot;font-size: 8px;&quot;&gt;APPROVES&lt;/font&gt;" style="shape=rhombus;perimeter=rhombusPerimeter;whiteSpace=wrap;html=1;align=center;rotation=75;" vertex="1" parent="1">
          <mxGeometry x="310" y="742.77" width="70" height="40" as="geometry" />
        </mxCell>
        <mxCell id="Zuvuwn8Xw8icW_HcA-dr-455" value="" style="endArrow=none;html=1;rounded=0;entryX=0.209;entryY=0.022;entryDx=0;entryDy=0;entryPerimeter=0;exitX=0.986;exitY=0.576;exitDx=0;exitDy=0;exitPerimeter=0;" edge="1" parent="1" source="Zuvuwn8Xw8icW_HcA-dr-454" target="Zuvuwn8Xw8icW_HcA-dr-412">
          <mxGeometry relative="1" as="geometry">
            <mxPoint x="265" y="802.06" as="sourcePoint" />
            <mxPoint x="425" y="802.06" as="targetPoint" />
          </mxGeometry>
        </mxCell>
        <mxCell id="Zuvuwn8Xw8icW_HcA-dr-456" value="N" style="resizable=0;html=1;whiteSpace=wrap;align=right;verticalAlign=bottom;" connectable="0" vertex="1" parent="Zuvuwn8Xw8icW_HcA-dr-455">
          <mxGeometry x="1" relative="1" as="geometry" />
        </mxCell>
        <mxCell id="Zuvuwn8Xw8icW_HcA-dr-457" value="" style="endArrow=none;html=1;rounded=0;exitX=0;exitY=0.5;exitDx=0;exitDy=0;entryX=0.5;entryY=1;entryDx=0;entryDy=0;" edge="1" parent="1" source="Zuvuwn8Xw8icW_HcA-dr-454" target="Zuvuwn8Xw8icW_HcA-dr-166">
          <mxGeometry relative="1" as="geometry">
            <mxPoint x="430" y="780" as="sourcePoint" />
            <mxPoint x="590" y="780" as="targetPoint" />
          </mxGeometry>
        </mxCell>
        <mxCell id="Zuvuwn8Xw8icW_HcA-dr-458" value="1" style="resizable=0;html=1;whiteSpace=wrap;align=right;verticalAlign=bottom;" connectable="0" vertex="1" parent="Zuvuwn8Xw8icW_HcA-dr-457">
          <mxGeometry x="1" relative="1" as="geometry">
            <mxPoint x="75" y="40" as="offset" />
          </mxGeometry>
        </mxCell>
        <mxCell id="Zuvuwn8Xw8icW_HcA-dr-459" value="&lt;span style=&quot;font-size: 8px;&quot;&gt;DATE&lt;/span&gt;" style="ellipse;whiteSpace=wrap;html=1;align=center;rotation=15;" vertex="1" parent="1">
          <mxGeometry x="102.5" y="856.35" width="25" height="13.65" as="geometry" />
        </mxCell>
        <mxCell id="Zuvuwn8Xw8icW_HcA-dr-460" value="&lt;font style=&quot;font-size: 8px;&quot;&gt;MESSAGE&lt;/font&gt;" style="ellipse;whiteSpace=wrap;html=1;align=center;rotation=15;" vertex="1" parent="1">
          <mxGeometry x="89.91" y="880.65" width="55" height="20" as="geometry" />
        </mxCell>
        <mxCell id="Zuvuwn8Xw8icW_HcA-dr-462" value="&lt;font style=&quot;font-size: 8px;&quot;&gt;TYPE&lt;/font&gt;" style="ellipse;whiteSpace=wrap;html=1;align=center;" vertex="1" parent="1">
          <mxGeometry x="150" y="897.3" width="40" height="20" as="geometry" />
        </mxCell>
        <mxCell id="Zuvuwn8Xw8icW_HcA-dr-463" value="&lt;span style=&quot;border-bottom: 1px dotted&quot;&gt;&lt;font style=&quot;font-size: 8px;&quot;&gt;ID&lt;/font&gt;&lt;/span&gt;" style="ellipse;whiteSpace=wrap;html=1;align=center;" vertex="1" parent="1">
          <mxGeometry x="165" y="876.15" width="30" height="15" as="geometry" />
        </mxCell>
        <mxCell id="Zuvuwn8Xw8icW_HcA-dr-466" value="" style="endArrow=none;html=1;rounded=0;entryX=0.385;entryY=1.123;entryDx=0;entryDy=0;entryPerimeter=0;" edge="1" parent="1" target="Zuvuwn8Xw8icW_HcA-dr-453">
          <mxGeometry relative="1" as="geometry">
            <mxPoint x="120" y="880" as="sourcePoint" />
            <mxPoint x="276.95" y="876.15" as="targetPoint" />
          </mxGeometry>
        </mxCell>
        <mxCell id="Zuvuwn8Xw8icW_HcA-dr-467" value="" style="endArrow=none;html=1;rounded=0;exitX=0.5;exitY=0;exitDx=0;exitDy=0;entryX=0;entryY=1;entryDx=0;entryDy=0;" edge="1" parent="1" source="Zuvuwn8Xw8icW_HcA-dr-459" target="Zuvuwn8Xw8icW_HcA-dr-453">
          <mxGeometry relative="1" as="geometry">
            <mxPoint x="110" y="852.1" as="sourcePoint" />
            <mxPoint x="270" y="852.1" as="targetPoint" />
          </mxGeometry>
        </mxCell>
        <mxCell id="Zuvuwn8Xw8icW_HcA-dr-468" value="" style="endArrow=none;html=1;rounded=0;entryX=0.909;entryY=1;entryDx=0;entryDy=0;entryPerimeter=0;exitX=0.5;exitY=0;exitDx=0;exitDy=0;" edge="1" parent="1" source="Zuvuwn8Xw8icW_HcA-dr-463" target="Zuvuwn8Xw8icW_HcA-dr-453">
          <mxGeometry relative="1" as="geometry">
            <mxPoint x="160" y="880" as="sourcePoint" />
            <mxPoint x="320" y="880" as="targetPoint" />
          </mxGeometry>
        </mxCell>
        <mxCell id="Zuvuwn8Xw8icW_HcA-dr-469" value="" style="endArrow=none;html=1;rounded=0;exitX=0.5;exitY=1;exitDx=0;exitDy=0;entryX=0;entryY=0;entryDx=0;entryDy=0;" edge="1" parent="1" source="Zuvuwn8Xw8icW_HcA-dr-453" target="Zuvuwn8Xw8icW_HcA-dr-462">
          <mxGeometry relative="1" as="geometry">
            <mxPoint x="140" y="883.41" as="sourcePoint" />
            <mxPoint x="300" y="883.41" as="targetPoint" />
          </mxGeometry>
        </mxCell>
        <mxCell id="Zuvuwn8Xw8icW_HcA-dr-472" value="&lt;font style=&quot;font-size: 8px;&quot;&gt;SUBSCRIBE&lt;/font&gt;" style="shape=rhombus;double=1;perimeter=rhombusPerimeter;whiteSpace=wrap;html=1;align=center;rotation=-60;" vertex="1" parent="1">
          <mxGeometry x="102.5" y="760.54" width="75" height="30" as="geometry" />
        </mxCell>
        <mxCell id="Zuvuwn8Xw8icW_HcA-dr-475" value="" style="endArrow=none;html=1;rounded=0;exitX=0.25;exitY=1;exitDx=0;exitDy=0;entryX=1;entryY=0.5;entryDx=0;entryDy=0;" edge="1" parent="1" source="Zuvuwn8Xw8icW_HcA-dr-166" target="Zuvuwn8Xw8icW_HcA-dr-472">
          <mxGeometry relative="1" as="geometry">
            <mxPoint x="165" y="726.25" as="sourcePoint" />
            <mxPoint x="160" y="740" as="targetPoint" />
          </mxGeometry>
        </mxCell>
        <mxCell id="Zuvuwn8Xw8icW_HcA-dr-476" value="1" style="resizable=0;html=1;whiteSpace=wrap;align=right;verticalAlign=bottom;" connectable="0" vertex="1" parent="Zuvuwn8Xw8icW_HcA-dr-475">
          <mxGeometry x="1" relative="1" as="geometry">
            <mxPoint x="19" y="-4" as="offset" />
          </mxGeometry>
        </mxCell>
        <mxCell id="Zuvuwn8Xw8icW_HcA-dr-477" value="" style="endArrow=none;html=1;rounded=0;exitX=0;exitY=0.5;exitDx=0;exitDy=0;entryX=0;entryY=0;entryDx=0;entryDy=0;" edge="1" parent="1" source="Zuvuwn8Xw8icW_HcA-dr-472" target="Zuvuwn8Xw8icW_HcA-dr-453">
          <mxGeometry relative="1" as="geometry">
            <mxPoint x="135" y="820" as="sourcePoint" />
            <mxPoint x="130" y="830" as="targetPoint" />
          </mxGeometry>
        </mxCell>
        <mxCell id="Zuvuwn8Xw8icW_HcA-dr-478" value="N" style="resizable=0;html=1;whiteSpace=wrap;align=right;verticalAlign=bottom;" connectable="0" vertex="1" parent="Zuvuwn8Xw8icW_HcA-dr-477">
          <mxGeometry x="1" relative="1" as="geometry">
            <mxPoint x="20" y="-8" as="offset" />
          </mxGeometry>
        </mxCell>
        <mxCell id="Zuvuwn8Xw8icW_HcA-dr-479" value="BLOGPOST" style="whiteSpace=wrap;html=1;align=center;" vertex="1" parent="1">
          <mxGeometry x="10" y="806.39" width="70" height="13.61" as="geometry" />
        </mxCell>
        <mxCell id="Zuvuwn8Xw8icW_HcA-dr-480" value="&lt;font style=&quot;font-size: 8px;&quot;&gt;ID&lt;/font&gt;" style="ellipse;whiteSpace=wrap;html=1;align=center;fontStyle=4;" vertex="1" parent="1">
          <mxGeometry x="50" y="850" width="20" height="10" as="geometry" />
        </mxCell>
        <mxCell id="Zuvuwn8Xw8icW_HcA-dr-481" value="&lt;font style=&quot;font-size: 8px;&quot;&gt;TITLE&lt;/font&gt;" style="ellipse;whiteSpace=wrap;html=1;align=center;" vertex="1" parent="1">
          <mxGeometry y="840" width="30" height="16.35" as="geometry" />
        </mxCell>
        <mxCell id="Zuvuwn8Xw8icW_HcA-dr-482" value="" style="endArrow=none;html=1;rounded=0;entryX=0.5;entryY=0;entryDx=0;entryDy=0;" edge="1" parent="1" target="Zuvuwn8Xw8icW_HcA-dr-480">
          <mxGeometry relative="1" as="geometry">
            <mxPoint x="50" y="820" as="sourcePoint" />
            <mxPoint x="180" y="830" as="targetPoint" />
          </mxGeometry>
        </mxCell>
        <mxCell id="Zuvuwn8Xw8icW_HcA-dr-483" value="" style="endArrow=none;html=1;rounded=0;entryX=0.341;entryY=0.873;entryDx=0;entryDy=0;entryPerimeter=0;exitX=0.5;exitY=0;exitDx=0;exitDy=0;" edge="1" parent="1" source="Zuvuwn8Xw8icW_HcA-dr-481" target="Zuvuwn8Xw8icW_HcA-dr-479">
          <mxGeometry relative="1" as="geometry">
            <mxPoint x="35" y="839.2" as="sourcePoint" />
            <mxPoint x="195" y="839.2" as="targetPoint" />
          </mxGeometry>
        </mxCell>
        <mxCell id="Zuvuwn8Xw8icW_HcA-dr-484" value="&lt;font style=&quot;font-size: 6px;&quot;&gt;CONTENT&lt;/font&gt;" style="ellipse;whiteSpace=wrap;html=1;align=center;" vertex="1" parent="1">
          <mxGeometry x="10" y="870" width="30" height="20" as="geometry" />
        </mxCell>
        <mxCell id="Zuvuwn8Xw8icW_HcA-dr-486" value="" style="endArrow=none;html=1;rounded=0;exitX=0.624;exitY=0.027;exitDx=0;exitDy=0;exitPerimeter=0;" edge="1" parent="1" source="Zuvuwn8Xw8icW_HcA-dr-484">
          <mxGeometry relative="1" as="geometry">
            <mxPoint x="55" y="862.78" as="sourcePoint" />
            <mxPoint x="40" y="820" as="targetPoint" />
          </mxGeometry>
        </mxCell>
        <mxCell id="Zuvuwn8Xw8icW_HcA-dr-487" value="&lt;font style=&quot;font-size: 8px;&quot;&gt;AUTHER_ID&lt;/font&gt;" style="ellipse;whiteSpace=wrap;html=1;align=center;rotation=-30;" vertex="1" parent="1">
          <mxGeometry x="57.5" y="860" width="50" height="20" as="geometry" />
        </mxCell>
        <mxCell id="Zuvuwn8Xw8icW_HcA-dr-488" value="" style="endArrow=none;html=1;rounded=0;exitX=0.75;exitY=1;exitDx=0;exitDy=0;entryX=0.5;entryY=0;entryDx=0;entryDy=0;" edge="1" parent="1" source="Zuvuwn8Xw8icW_HcA-dr-479" target="Zuvuwn8Xw8icW_HcA-dr-487">
          <mxGeometry relative="1" as="geometry">
            <mxPoint x="80" y="835" as="sourcePoint" />
            <mxPoint x="80" y="860" as="targetPoint" />
          </mxGeometry>
        </mxCell>
        <mxCell id="Zuvuwn8Xw8icW_HcA-dr-489" value="&lt;font style=&quot;font-size: 8px;&quot;&gt;PUBLISHED_DATE&lt;/font&gt;" style="ellipse;whiteSpace=wrap;html=1;align=center;" vertex="1" parent="1">
          <mxGeometry x="2.5" y="902.3" width="79.33" height="22.7" as="geometry" />
        </mxCell>
        <mxCell id="Zuvuwn8Xw8icW_HcA-dr-491" value="" style="endArrow=none;html=1;rounded=0;entryX=0.5;entryY=1;entryDx=0;entryDy=0;" edge="1" parent="1" target="Zuvuwn8Xw8icW_HcA-dr-479">
          <mxGeometry relative="1" as="geometry">
            <mxPoint x="45" y="902.3" as="sourcePoint" />
            <mxPoint x="205" y="902.3" as="targetPoint" />
          </mxGeometry>
        </mxCell>
        <mxCell id="Zuvuwn8Xw8icW_HcA-dr-492" value="&lt;font style=&quot;font-size: 8px;&quot;&gt;APPROVE&lt;/font&gt;" style="shape=rhombus;perimeter=rhombusPerimeter;whiteSpace=wrap;html=1;align=center;rotation=-45;" vertex="1" parent="1">
          <mxGeometry x="64.99999999999999" y="750" width="70" height="30" as="geometry" />
        </mxCell>
        <mxCell id="Zuvuwn8Xw8icW_HcA-dr-493" value="" style="endArrow=none;html=1;rounded=0;exitX=0.184;exitY=1.013;exitDx=0;exitDy=0;exitPerimeter=0;entryX=1;entryY=0.5;entryDx=0;entryDy=0;" edge="1" parent="1" source="Zuvuwn8Xw8icW_HcA-dr-166" target="Zuvuwn8Xw8icW_HcA-dr-492">
          <mxGeometry relative="1" as="geometry">
            <mxPoint x="116.94999999999999" y="749.2" as="sourcePoint" />
            <mxPoint x="276.95" y="749.2" as="targetPoint" />
          </mxGeometry>
        </mxCell>
        <mxCell id="Zuvuwn8Xw8icW_HcA-dr-494" value="1" style="resizable=0;html=1;whiteSpace=wrap;align=right;verticalAlign=bottom;" connectable="0" vertex="1" parent="Zuvuwn8Xw8icW_HcA-dr-493">
          <mxGeometry x="1" relative="1" as="geometry" />
        </mxCell>
        <mxCell id="Zuvuwn8Xw8icW_HcA-dr-495" value="" style="endArrow=none;html=1;rounded=0;exitX=0;exitY=0.5;exitDx=0;exitDy=0;" edge="1" parent="1" source="Zuvuwn8Xw8icW_HcA-dr-492" target="Zuvuwn8Xw8icW_HcA-dr-479">
          <mxGeometry relative="1" as="geometry">
            <mxPoint x="70" y="790" as="sourcePoint" />
            <mxPoint x="60" y="800" as="targetPoint" />
          </mxGeometry>
        </mxCell>
        <mxCell id="Zuvuwn8Xw8icW_HcA-dr-496" value="N" style="resizable=0;html=1;whiteSpace=wrap;align=right;verticalAlign=bottom;" connectable="0" vertex="1" parent="Zuvuwn8Xw8icW_HcA-dr-495">
          <mxGeometry x="1" relative="1" as="geometry" />
        </mxCell>
      </root>
    </mxGraphModel>
  </diagram>
</mxfile>
